<svg width="21" height="22" viewBox="0 0 21 22" fill="none" xmlns="http://www.w3.org/2000/svg">
<path opacity="0.2" d="M10.4999 2.24976C15.3255 2.24976 19.2499 6.17501 19.2499 10.9998C19.2499 15.8245 15.3255 19.7498 10.4999 19.7498C5.67516 19.7498 1.74991 15.8245 1.74991 10.9998C1.74991 6.17501 5.67516 2.24976 10.4999 2.24976Z" fill="white"/>
<path d="M9.23783 7.30668C9.40495 7.30668 9.57295 7.37056 9.7007 7.49831L12.7518 10.5346C12.8752 10.6579 12.9443 10.8251 12.9443 11.0001C12.9443 11.1742 12.8752 11.3413 12.7518 11.4647L9.7007 14.5027C9.44433 14.7582 9.02958 14.7582 8.7732 14.5009C8.5177 14.2437 8.51858 13.8281 8.77495 13.5726L11.3588 11.0001L8.77495 8.42756C8.51858 8.17206 8.5177 7.75731 8.7732 7.50006C8.90095 7.37056 9.06983 7.30668 9.23783 7.30668Z" fill="white"/>
</svg>
