<svg width="208" height="40" viewBox="0 0 208 40" fill="none" xmlns="http://www.w3.org/2000/svg">
<g clip-path="url(#clip0_1103_748)">
<g clip-path="url(#clip1_1103_748)">
<path d="M52.3657 24.2345C52.4123 24.1746 52.4807 24.1352 52.5562 24.1248C52.6317 24.1144 52.7083 24.1337 52.7696 24.1787H52.8003C54.3796 25.6904 56.4905 26.5313 58.6845 26.523C60.9339 26.523 62.0381 25.4625 62.0381 24.3766C62.0381 22.9406 60.3613 22.4585 58.1426 21.946C54.9934 21.2306 50.9496 20.3679 50.9496 16.1005C50.9496 12.919 53.7256 10.3413 58.2551 10.3413C61.2151 10.3413 63.6843 11.1989 65.5707 12.8327C65.6214 12.8816 65.6528 12.9467 65.6593 13.0165C65.6659 13.0862 65.6472 13.156 65.6065 13.2133L63.6638 15.7504C63.6167 15.8084 63.5485 15.8457 63.4739 15.8542C63.3993 15.8628 63.3243 15.8419 63.2651 15.7961C61.7747 14.5745 59.9017 13.907 57.9688 13.9085C56.1233 13.9085 55.1366 14.7153 55.1366 15.8519C55.1366 17.1458 56.7521 17.5467 58.9759 18.0592C62.1506 18.7696 66.1944 19.7235 66.1944 23.9605C66.1944 27.4566 63.6741 30.1003 58.4851 30.1003C54.9065 30.1003 52.2993 28.9383 50.4946 27.2283C50.4456 27.1805 50.4155 27.1168 50.4098 27.0487C50.4042 26.9807 50.4234 26.913 50.464 26.8579L52.3657 24.2345Z" fill="#434A54"/>
<path d="M75.2022 15.5676C79.3585 15.5676 82.1907 18.668 82.1907 23.1789V23.7422C82.1881 23.8068 82.1607 23.868 82.1141 23.9133C82.0676 23.9586 82.0054 23.9845 81.9402 23.9857H71.823C72.1093 26.1727 74.2513 27.9132 77.7941 26.9034C78.3047 26.7529 78.7759 26.4931 79.1745 26.1423C79.2185 26.1031 79.27 26.073 79.3259 26.0538C79.3818 26.0346 79.441 26.0266 79.5 26.0304C79.559 26.0342 79.6167 26.0496 79.6697 26.0758C79.7226 26.102 79.7698 26.1384 79.8084 26.1829L79.8442 26.2285L81.0507 27.9994C81.0866 28.0492 81.1029 28.1103 81.0963 28.1711C81.0897 28.232 81.0607 28.2883 81.0149 28.3293C79.414 29.5388 77.4432 30.1657 75.4323 30.1052C71.1891 30.1052 67.9837 27.2637 67.9837 22.8288C67.9837 18.7999 70.9488 15.5676 75.2022 15.5676ZM71.8792 21.5298H78.5252C78.5505 21.5303 78.5751 21.5219 78.5947 21.5061C78.6143 21.4903 78.6277 21.4682 78.6325 21.4436C78.5709 20.601 78.1763 19.8168 77.5348 19.2618C76.8932 18.7067 76.0566 18.4258 75.2073 18.4802C74.3668 18.4525 73.5469 18.7416 72.9124 19.2895C72.2779 19.8374 71.8759 20.6033 71.7872 21.4334C71.7848 21.4586 71.791 21.4839 71.805 21.5051C71.8189 21.5263 71.8397 21.5422 71.8639 21.5501L71.8792 21.5298Z" fill="#434A54"/>
<path d="M85.4625 10.3513H88.6117C88.6808 10.3513 88.7471 10.3786 88.796 10.4271C88.8449 10.4756 88.8724 10.5415 88.8724 10.6101V29.8515C88.8724 29.9201 88.8449 29.986 88.796 30.0345C88.7471 30.083 88.6808 30.1103 88.6117 30.1103H85.4625C85.4285 30.1103 85.3948 30.1036 85.3635 30.0905C85.3321 30.0774 85.3037 30.0583 85.2799 30.0342C85.2561 30.0101 85.2374 29.9815 85.2249 29.9502C85.2123 29.9188 85.2062 29.8853 85.2069 29.8515V10.6101C85.2062 10.5764 85.2123 10.5428 85.2249 10.5115C85.2374 10.4801 85.2561 10.4515 85.2799 10.4274C85.3037 10.4033 85.3321 10.3842 85.3635 10.3711C85.3948 10.358 85.4285 10.3513 85.4625 10.3513Z" fill="#434A54"/>
<path d="M93.6933 19.4851H91.4234C91.4174 19.4851 91.4114 19.4839 91.4058 19.4816C91.4002 19.4793 91.3952 19.4759 91.3909 19.4717C91.3866 19.4675 91.3832 19.4624 91.3809 19.4569C91.3786 19.4513 91.3774 19.4454 91.3774 19.4394V16.3492C91.3766 16.343 91.3772 16.3367 91.3792 16.3308C91.3812 16.3249 91.3846 16.3195 91.389 16.3151C91.3935 16.3106 91.3989 16.3073 91.4049 16.3053C91.4108 16.3033 91.4172 16.3027 91.4234 16.3035H93.6933V15.1618C93.6933 12.1478 95.6564 10.3413 98.4017 10.3413C99.3082 10.3226 100.207 10.5155 101.024 10.9046C101.031 10.9121 101.035 10.9221 101.035 10.9325C101.035 10.9429 101.031 10.9529 101.024 10.9604L100.339 13.4518C100.339 13.4518 100.309 13.4874 100.288 13.4518C99.9396 13.2721 99.5509 13.183 99.1583 13.193C98.1358 13.193 97.4252 13.8781 97.4252 15.1974V16.2832H100.211C100.218 16.2824 100.224 16.283 100.23 16.285C100.236 16.287 100.241 16.2903 100.246 16.2948C100.25 16.2992 100.254 16.3046 100.256 16.3105C100.258 16.3164 100.258 16.3227 100.257 16.3289V19.4191C100.257 19.4312 100.253 19.4428 100.244 19.4514C100.235 19.46 100.224 19.4648 100.211 19.4648H97.4252V30.0496C97.426 30.0564 97.4253 30.0634 97.423 30.0699C97.4207 30.0764 97.417 30.0824 97.4121 30.0873C97.4071 30.0921 97.4012 30.0959 97.3946 30.0981C97.388 30.1004 97.381 30.1011 97.3741 30.1003H93.7955C93.789 30.1004 93.7826 30.099 93.7766 30.0964C93.7707 30.0938 93.7654 30.09 93.761 30.0852C93.7567 30.0804 93.7534 30.0748 93.7514 30.0686C93.7494 30.0625 93.7488 30.056 93.7495 30.0496V19.4851H93.6933Z" fill="#434A54"/>
<path d="M102.762 10.6558C102.762 10.613 102.77 10.5705 102.786 10.5308C102.802 10.4911 102.826 10.455 102.857 10.4247C102.887 10.3944 102.924 10.3705 102.964 10.3544C103.004 10.3383 103.046 10.3304 103.09 10.3311H110.364C116.397 10.3311 120.589 14.4564 120.589 20.2157C120.589 25.9749 116.407 30.0799 110.364 30.0799H103.09C103.046 30.0806 103.004 30.0727 102.964 30.0566C102.924 30.0405 102.887 30.0166 102.857 29.9863C102.826 29.956 102.802 29.92 102.786 29.8803C102.77 29.8405 102.762 29.798 102.762 29.7552V10.6558ZM110.364 26.4975C114.178 26.4975 116.397 23.453 116.397 20.2258C116.397 16.8413 114.321 13.9236 110.364 13.9236H107.225C107.129 13.9236 107.037 13.9616 106.969 14.0292C106.901 14.0967 106.862 14.1884 106.862 14.2839V26.1626C106.862 26.2104 106.871 26.2578 106.889 26.3021C106.907 26.3464 106.933 26.3867 106.967 26.4207C107.001 26.4547 107.041 26.4817 107.085 26.5001C107.13 26.5185 107.177 26.528 107.225 26.528H110.364V26.4975Z" fill="#434A54"/>
<path d="M129.745 15.5676C133.896 15.5676 136.733 18.668 136.733 23.1789V23.9857H126.361C126.591 25.7363 128.012 27.1977 130.374 27.1977C131.717 27.2004 133.019 26.7333 134.05 25.8784C134.055 25.872 134.061 25.8669 134.069 25.8634C134.076 25.8599 134.085 25.858 134.093 25.858C134.101 25.858 134.109 25.8599 134.117 25.8634C134.125 25.8669 134.131 25.872 134.136 25.8784L135.67 28.1212C135.676 28.1269 135.68 28.1336 135.683 28.141C135.687 28.1484 135.688 28.1563 135.688 28.1644C135.688 28.1724 135.687 28.1803 135.683 28.1877C135.68 28.1951 135.676 28.2018 135.67 28.2075C134.254 29.471 132.092 30.0849 129.965 30.0849C125.727 30.0849 122.516 27.2485 122.516 22.8085C122.526 18.7999 125.492 15.5676 129.745 15.5676ZM126.371 21.5298H133.104C133.121 21.5299 133.137 21.5236 133.149 21.5123C133.161 21.501 133.169 21.4855 133.17 21.4689C133.144 21.0486 133.035 20.6375 132.849 20.2592C132.662 19.8809 132.403 19.5428 132.084 19.2642C131.766 18.9857 131.396 18.7721 130.994 18.6359C130.593 18.4996 130.168 18.4433 129.745 18.4701C128.898 18.4454 128.072 18.7407 127.436 19.2963C126.799 19.8519 126.398 20.6265 126.315 21.4639C126.312 21.4726 126.312 21.4817 126.314 21.4906C126.315 21.4995 126.319 21.5079 126.325 21.5152C126.33 21.5225 126.337 21.5285 126.345 21.5328C126.353 21.537 126.362 21.5395 126.371 21.54V21.5298Z" fill="#434A54"/>
<path d="M146.247 15.5676C149.023 15.5676 150.736 16.7296 151.677 17.9728C151.701 18.004 151.714 18.0424 151.714 18.0819C151.714 18.1214 151.701 18.1598 151.677 18.191L149.524 20.1801C149.493 20.209 149.452 20.225 149.409 20.225C149.367 20.225 149.326 20.209 149.294 20.1801C148.963 19.747 148.532 19.3986 148.038 19.1638C147.543 18.9291 147 18.8148 146.452 18.8303C144.228 18.8303 142.669 20.4338 142.669 22.839C142.669 25.2441 144.228 26.8983 146.452 26.8983C146.999 26.9078 147.54 26.7908 148.034 26.5565C148.527 26.3223 148.959 25.9772 149.294 25.5486C149.307 25.5323 149.322 25.5186 149.34 25.5084C149.358 25.4982 149.378 25.4918 149.399 25.4894C149.419 25.487 149.44 25.4888 149.46 25.4946C149.48 25.5004 149.498 25.5102 149.514 25.5232L151.677 27.5123C151.701 27.5435 151.714 27.5819 151.714 27.6214C151.714 27.6609 151.701 27.6993 151.677 27.7305C150.623 29.1259 148.609 30.4097 145.194 30.0849C143.667 29.9424 142.229 29.3039 141.104 28.2681C139.979 27.2324 139.23 25.8574 138.973 24.3562C138.17 19.3225 141.442 15.5676 146.247 15.5676Z" fill="#434A54"/>
<path d="M153.619 22.8341C153.619 18.9117 156.395 15.583 160.981 15.583C165.567 15.583 168.373 18.8965 168.373 22.8341C168.373 26.7716 165.597 30.1155 160.981 30.1155C156.365 30.1155 153.619 26.7716 153.619 22.8341ZM164.56 22.8341C164.56 20.6877 163.261 18.8254 160.981 18.8254C158.701 18.8254 157.428 20.6877 157.428 22.8341C157.428 24.9804 158.701 26.8934 160.981 26.8934C163.261 26.8934 164.56 25.0312 164.56 22.8341Z" fill="#434A54"/>
<path d="M181.047 28.0097C180.537 28.6604 179.884 29.187 179.138 29.5493C178.392 29.9116 177.573 30.1001 176.742 30.1003C173.215 30.1003 170.556 27.4566 170.556 22.8492C170.556 18.2419 173.189 15.5677 176.742 15.5677C177.576 15.5654 178.399 15.7558 179.147 16.124C179.894 16.4921 180.544 17.0278 181.047 17.6888V10.6204C181.049 10.5488 181.078 10.4807 181.128 10.4291C181.178 10.3776 181.246 10.3463 181.318 10.3413H184.467C184.503 10.342 184.538 10.3497 184.571 10.3642C184.604 10.3786 184.634 10.3995 184.659 10.4254C184.683 10.4514 184.703 10.4821 184.715 10.5155C184.728 10.549 184.734 10.5847 184.733 10.6204V29.8314C184.733 29.9018 184.705 29.9694 184.655 30.0197C184.605 30.07 184.538 30.099 184.467 30.1003H181.318C181.246 30.1003 181.177 30.0719 181.126 30.0215C181.075 29.9711 181.047 29.9027 181.047 29.8314V28.0097ZM181.047 20.3984C180.674 19.9124 180.194 19.5175 179.644 19.244C179.093 18.9705 178.487 18.8255 177.872 18.8203C175.791 18.8203 174.344 20.4542 174.344 22.8797C174.344 25.3052 175.791 26.8883 177.872 26.8883C178.488 26.8854 179.095 26.7415 179.645 26.4678C180.196 26.194 180.675 25.7979 181.047 25.3102V20.3984Z" fill="#434A54"/>
<path d="M195.064 15.5676C199.221 15.5676 202.053 18.668 202.053 23.1789V23.9756H191.685C191.915 25.7262 193.331 27.1876 195.693 27.1876C197.062 27.1903 198.385 26.7019 199.42 25.8125L201.051 28.177C199.635 29.471 197.472 30.1002 195.31 30.1002C191.067 30.1002 187.861 27.2586 187.861 22.8187C187.846 18.7999 190.826 15.5676 195.064 15.5676ZM191.629 21.5298H198.495C198.474 21.1049 198.368 20.6883 198.184 20.3043C197.999 19.9204 197.739 19.5767 197.419 19.2934C197.1 19.01 196.726 18.7927 196.321 18.6539C195.916 18.5152 195.487 18.4579 195.059 18.4853C194.203 18.4603 193.37 18.7619 192.73 19.3283C192.091 19.8946 191.695 20.6825 191.624 21.5298H191.629Z" fill="#434A54"/>
<path d="M19.4223 12.3202C21.7507 12.3202 23.9839 11.4024 25.6309 9.76868C27.2778 8.13493 28.2038 5.91891 28.2051 3.60776C28.2051 -1.20259 10.6547 -1.20259 10.6547 3.60776C10.6541 4.75123 10.8803 5.88363 11.3205 6.94031C11.7608 7.99698 12.4064 8.95725 13.2206 9.76627C14.0347 10.5753 15.0014 11.2172 16.0655 11.6554C17.1296 12.0936 18.2702 12.3195 19.4223 12.3202Z" fill="#434A54"/>
<path d="M25.8382 22.4686C25.6962 22.4221 25.5726 22.3324 25.485 22.2121C25.3974 22.0919 25.3502 21.9472 25.3502 21.7988C25.3502 21.6504 25.3974 21.5058 25.485 21.3856C25.5726 21.2653 25.6962 21.1756 25.8382 21.129C29.1719 19.9123 32.092 17.7863 34.2625 14.9955C36.433 12.2047 37.7658 8.86253 38.1076 5.35333C38.1332 5.04888 38.1536 4.73935 38.1741 4.4349C38.1789 4.32918 38.1625 4.22357 38.126 4.12415C38.0895 4.02473 38.0335 3.93347 37.9612 3.85563C37.889 3.7778 37.802 3.71493 37.7051 3.67066C37.6083 3.62638 37.5036 3.60157 37.397 3.59766H34.437C34.2324 3.59739 34.0355 3.67519 33.8871 3.81497C33.7386 3.95475 33.65 4.14582 33.6395 4.34864C33.6395 4.64294 33.6037 4.9271 33.5628 5.21126C33.161 8.6533 31.4987 11.8287 28.8919 14.1336C26.2852 16.4385 22.9159 17.712 19.4248 17.712C15.9338 17.712 12.5645 16.4385 9.95775 14.1336C7.35101 11.8287 5.68867 8.6533 5.28687 5.21126C5.25109 4.93725 5.25109 4.65309 5.21019 4.35879C5.1997 4.15596 5.11106 3.9649 4.96262 3.82512C4.81418 3.68534 4.61729 3.60754 4.41268 3.60781H1.45267C1.34641 3.6078 1.24119 3.62873 1.14314 3.6694C1.04509 3.71007 0.956153 3.76966 0.881487 3.84472C0.806821 3.91977 0.747914 4.00879 0.708185 4.10662C0.668456 4.20445 0.648695 4.30914 0.650049 4.4146V4.43998C0.650049 4.75458 0.690947 5.05903 0.716508 5.36348C1.05758 8.87531 2.39324 12.2196 4.56901 15.0095C6.74478 17.7994 9.67178 19.9211 13.0115 21.129C13.1511 21.178 13.2719 21.2687 13.3574 21.3887C13.4429 21.5086 13.4888 21.6519 13.4888 21.7988C13.4888 21.9458 13.4429 22.0891 13.3574 22.209C13.2719 22.329 13.1511 22.4197 13.0115 22.4686C9.67676 23.6839 6.75575 25.8094 4.58501 28.6005C2.41427 31.3916 1.08213 34.7346 0.74207 38.2444C0.690947 38.564 0.650049 38.8583 0.650049 39.1628C0.645252 39.2685 0.66159 39.3741 0.69812 39.4735C0.73465 39.573 0.79065 39.6642 0.862889 39.7421C0.935127 39.8199 1.02218 39.8828 1.11902 39.927C1.21585 39.9713 1.32057 39.9961 1.42711 40H4.41268C4.61729 40.0003 4.81418 39.9225 4.96262 39.7827C5.11106 39.6429 5.1997 39.4519 5.21019 39.2491C5.21019 38.9548 5.24598 38.6706 5.28687 38.3864C5.69339 34.9462 7.35654 31.7732 9.96151 29.4681C12.5665 27.1631 15.9325 25.886 19.4223 25.8785C22.9136 25.8825 26.2821 27.1583 28.8886 29.4639C31.4951 31.7695 33.1583 34.9444 33.5628 38.3864C33.5935 38.6706 33.6242 38.9548 33.6395 39.2491C33.65 39.4519 33.7386 39.6429 33.8871 39.7827C34.0355 39.9225 34.2324 40.0003 34.437 40H37.397C37.6099 40 37.814 39.9161 37.9646 39.7667C38.1151 39.6173 38.1996 39.4147 38.1996 39.2034V39.1729C38.1996 38.8583 38.1587 38.5539 38.1332 38.2545C37.7934 34.7398 36.4586 31.3923 34.2829 28.5989C32.1072 25.8055 29.1795 23.6802 25.8382 22.4686Z" fill="#434A54"/>
<path d="M205.207 15.4457C205.21 15.4727 205.21 15.4999 205.207 15.5269C205.211 15.5436 205.211 15.5609 205.207 15.5776C205.211 15.5875 205.211 15.5982 205.207 15.6081H205.182H204.67V17.2521C204.673 17.2621 204.673 17.2725 204.67 17.2825C204.67 17.2825 204.67 17.2825 204.635 17.2825H204.573H204.369H204.302C204.292 17.286 204.282 17.286 204.272 17.2825C204.269 17.2778 204.268 17.2726 204.268 17.2673C204.268 17.2621 204.269 17.2569 204.272 17.2521V15.6182H203.76H203.735C203.733 15.6082 203.733 15.5978 203.735 15.5878C203.734 15.5709 203.734 15.5539 203.735 15.537C203.732 15.51 203.732 15.4828 203.735 15.4558C203.732 15.4288 203.732 15.4016 203.735 15.3746C203.735 15.3746 203.735 15.3391 203.735 15.3239C203.735 15.3087 203.735 15.3239 203.735 15.2935H205.243C205.245 15.3035 205.245 15.3139 205.243 15.3239C205.246 15.3407 205.246 15.3578 205.243 15.3746C205.233 15.3994 205.221 15.4232 205.207 15.4457Z" fill="#434A54"/>
<path d="M207.86 17.2522C207.863 17.2622 207.863 17.2726 207.86 17.2826C207.851 17.2861 207.84 17.2861 207.83 17.2826H207.768H207.574H207.513C207.503 17.2861 207.492 17.2861 207.482 17.2826C207.48 17.2726 207.48 17.2622 207.482 17.2522V15.6031L206.858 17.2522C206.861 17.2639 206.861 17.276 206.858 17.2877H206.823H206.756H206.572H206.511C206.497 17.2914 206.483 17.2914 206.47 17.2877V17.2573L205.892 15.5929V17.2522C205.894 17.2622 205.894 17.2726 205.892 17.2826C205.882 17.2861 205.871 17.2861 205.862 17.2826H205.8H205.606H205.545C205.535 17.2861 205.524 17.2861 205.514 17.2826C205.512 17.2726 205.512 17.2622 205.514 17.2522V15.4255C205.512 15.3813 205.527 15.3381 205.555 15.3037C205.57 15.2892 205.589 15.278 205.609 15.271C205.63 15.264 205.651 15.2613 205.672 15.2631H205.948C205.989 15.2577 206.03 15.2577 206.071 15.2631C206.104 15.2703 206.136 15.2841 206.163 15.3037C206.19 15.3223 206.213 15.3465 206.23 15.3747C206.248 15.4101 206.262 15.4476 206.271 15.4864L206.674 16.7448L207.134 15.527C207.147 15.4887 207.162 15.4514 207.181 15.4153C207.197 15.3869 207.217 15.3612 207.242 15.3392C207.264 15.3198 207.29 15.3059 207.319 15.2986C207.352 15.2931 207.387 15.2931 207.421 15.2986H207.697C207.722 15.293 207.748 15.293 207.774 15.2986C207.793 15.3038 207.811 15.3143 207.825 15.3291L207.855 15.3849C207.858 15.4068 207.858 15.429 207.855 15.4509L207.86 17.2522Z" fill="#434A54"/>
</g>
</g>
<defs>
<clipPath id="clip0_1103_748">
<rect width="208" height="40" fill="white"/>
</clipPath>
<clipPath id="clip1_1103_748">
<rect width="207.21" height="40" fill="white" transform="translate(0.650024)"/>
</clipPath>
</defs>
</svg>
