<svg width="374" height="324" viewBox="0 0 374 324" fill="none" xmlns="http://www.w3.org/2000/svg">
<path fill-rule="evenodd" clip-rule="evenodd" d="M187.455 45.0303C289.516 45.0303 372.253 127.773 372.253 229.842C372.253 268.305 360.504 304.023 340.4 333.604H34.5101C14.4058 304.023 2.6571 268.305 2.6571 229.842C2.6571 127.773 85.3939 45.0303 187.455 45.0303Z" fill="#E7EEFF" fill-opacity="0.6"/>
<path d="M12.2876 155.083C22.0453 15.342 201.61 -49.82 289.621 45.0303C367.945 129.441 406.144 248.507 338.978 333.601L136.173 333.602C132.648 327.08 129.354 320.471 126.245 313.962C96.3222 251.312 2.52985 294.823 12.2876 155.083Z" fill="#F4F7FF" fill-opacity="0.5"/>
<mask id="mask0_1101_523" style="mask-type:alpha" maskUnits="userSpaceOnUse" x="0" y="6" width="215" height="215">
<path d="M107.695 220.44C166.79 220.44 214.696 172.547 214.696 113.468C214.696 54.3894 166.79 6.49658 107.695 6.49658C48.6007 6.49658 0.694962 54.3894 0.694962 113.468C0.694962 172.547 48.6007 220.44 107.695 220.44Z" fill="white"/>
</mask>
<g mask="url(#mask0_1101_523)">
<path d="M107.695 220.44C166.79 220.44 214.696 172.547 214.696 113.468C214.696 54.3894 166.79 6.49658 107.695 6.49658C48.6007 6.49658 0.694962 54.3894 0.694962 113.468C0.694962 172.547 48.6007 220.44 107.695 220.44Z" fill="white" fill-opacity="0.6"/>
<path d="M70.4928 15.8115H103.492V58.117H70.4928V15.8115Z" stroke="#6073BE" stroke-width="0.762"/>
<path d="M72.1592 17.8103H101.825V55.785H72.1592V17.8103Z" fill="#F4F7FF" stroke="#6073BE" stroke-width="0.762"/>
<path d="M70.4931 58.1169L72.1597 55.7851M72.1597 17.8102L70.4931 15.8115L72.1597 17.8102ZM103.492 15.8115L101.826 17.8102L103.492 15.8115ZM103.492 58.1169L101.826 55.7851L103.492 58.1169Z" stroke="#6073BE" stroke-width="0.762"/>
<path d="M32.0582 15.8115H65.0577V58.117H32.0582V15.8115Z" stroke="#6073BE" stroke-width="0.762"/>
<path d="M33.7246 17.8103H63.3908V55.785H33.7246V17.8103Z" fill="#F4F7FF" stroke="#6073BE" stroke-width="0.762"/>
<path d="M32.0584 58.1169L33.7251 55.7851M33.7251 17.8102L32.0584 15.8115L33.7251 17.8102ZM65.0577 15.8115L63.3911 17.8102L65.0577 15.8115ZM65.0577 58.1169L63.3911 55.7851L65.0577 58.1169Z" stroke="#6073BE" stroke-width="0.762"/>
<path d="M140.496 44.3185C138.581 44.3185 137.028 42.76 137.028 40.8375C137.028 38.915 138.581 37.3564 140.496 37.3564C142.412 37.3564 143.965 38.915 143.965 40.8375C143.965 42.76 142.412 44.3185 140.496 44.3185Z" fill="#6276C4"/>
<path d="M139.597 6.91113V25.0935" stroke="#6276C4" stroke-width="0.762"/>
<path fill-rule="evenodd" clip-rule="evenodd" d="M153.747 33.101L139.597 22.6582L125.447 33.101C123.359 34.6419 122.127 37.0825 122.127 39.6771H157.068C157.068 37.0825 155.835 34.6419 153.747 33.101Z" fill="#B1C1FF"/>
<path d="M122.127 39.6772H157.068V40.7088H122.127V39.6772Z" fill="#849DFF"/>
<path fill-rule="evenodd" clip-rule="evenodd" d="M68.2856 120.262L69.8205 118.917L76.2314 129.346L74.4484 133.628L79.2876 172.046L107.899 148.401L117.752 163.361L89.6979 191.368L58.711 169.627L68.2856 120.262Z" fill="#D6DFF3"/>
<path fill-rule="evenodd" clip-rule="evenodd" d="M109.464 150.632C110.937 144.632 112.019 140.645 112.71 138.671C113.401 136.697 114.85 133.338 117.057 128.593C118.848 129.628 119.203 131.311 118.121 133.64C121.745 129.953 124.928 127.721 127.67 126.943C131.783 125.776 132.02 128.11 129.296 129.214C127.48 129.949 125.086 131.774 122.115 134.687C126.156 131.639 129.573 129.973 132.367 129.69C136.558 129.265 135.64 131.291 132.367 132.23C129.095 133.169 127.526 135.109 127.526 135.109C128.928 135.109 129.776 135.451 130.07 136.136C130.364 136.821 130.106 137.666 129.296 138.671C130.38 138.713 131.066 139.01 131.352 139.562C131.781 140.389 131.706 141.389 130.317 143.219C128.928 145.049 127.63 147.587 126.571 148.168C125.865 148.555 121.765 151.819 114.271 157.958L109.464 150.632Z" fill="#FFAE9C"/>
<path d="M131.453 140.913C131.453 140.913 130.097 144.088 127.542 145.355C124.987 146.623 127.665 141.856 128.907 140.345M118.121 133.64C117.378 134.827 116.809 135.9 116.415 136.861L118.121 133.64ZM129.296 138.671C127.129 140.732 125.716 141.702 125.055 141.583C124.064 141.404 123.753 139.947 126.132 137.807L129.296 138.671Z" stroke="#7D1C1C" stroke-width="0.762"/>
<path fill-rule="evenodd" clip-rule="evenodd" d="M103.957 102.581C107.802 97.4164 108.763 91.3637 106.841 84.4225C103.957 74.0106 79.04 65.9425 68.3324 80.8957C61.194 90.8646 63.0375 102.374 73.8629 115.423L103.957 102.581Z" fill="#7D1C1C"/>
<path d="M56.8301 75.5652C55.8482 78.1573 55.392 80.0531 55.4616 81.2527C55.7581 86.3607 59.3082 89.4874 64.6132 89.2047C62.3051 96.1792 63.7504 102.916 68.9489 109.414" stroke="#7D1C1C" stroke-width="0.762"/>
<path fill-rule="evenodd" clip-rule="evenodd" d="M77.4168 74.6066C76.6228 70.4027 73.7369 67.8626 68.7591 66.9864C61.2925 65.6721 52.9205 77.2729 56.1895 83.5222C58.3688 87.6884 61.438 89.5637 65.3971 89.1481L77.4168 74.6066Z" fill="#7D1C1C"/>
<mask id="mask1_1101_523" style="mask-type:alpha" maskUnits="userSpaceOnUse" x="59" y="95" width="47" height="39">
<path d="M76.2577 101.088C75.9163 100.164 76.0957 95.4662 78.9024 95.2254C80.7735 95.0649 81.7059 96.1937 81.6995 98.6118C92.6263 102.121 100.509 101.094 105.349 95.53C106.27 97.856 104.702 102.287 100.645 108.824C100.913 113.615 100.913 116.145 100.645 116.415C100.377 116.686 99.1413 116.686 96.9367 116.415C95.1178 118.571 93.9097 120.073 93.3123 120.921C90.9765 124.236 88.799 124.615 86.976 124.236C84.5321 123.728 82.1595 122.173 79.8582 119.573C74.2423 125.649 71.4344 130.203 71.4344 133.235L59.2862 116.321L76.2577 101.088Z" fill="white"/>
</mask>
<g mask="url(#mask1_1101_523)">
<path d="M76.2577 101.088C75.9163 100.164 76.0957 95.4662 78.9024 95.2254C80.7735 95.0649 81.7059 96.1937 81.6995 98.6118C92.6263 102.121 100.509 101.094 105.349 95.53C106.27 97.856 104.702 102.287 100.645 108.824C100.913 113.615 100.913 116.145 100.645 116.415C100.377 116.686 99.1413 116.686 96.9367 116.415C95.1178 118.571 93.9097 120.073 93.3123 120.921C90.9765 124.236 88.799 124.615 86.976 124.236C84.5321 123.728 82.1595 122.173 79.8582 119.573C74.2423 125.649 71.4344 130.203 71.4344 133.235L59.2862 116.321L76.2577 101.088Z" fill="#FFAE9C"/>
<path fill-rule="evenodd" clip-rule="evenodd" d="M79.8582 119.573L77.2481 114.631C74.2346 118.849 73.0573 123.7 73.7164 129.184L79.8582 119.573Z" fill="#F99B86"/>
<path d="M97.283 105.893C97.283 106.225 97.5525 106.495 97.8851 106.495C98.2178 106.495 98.4872 106.225 98.4872 105.893C98.4872 105.561 98.2178 105.291 97.8851 105.291C97.5525 105.291 97.283 105.561 97.283 105.893Z" fill="#434A54" stroke="#434A54"/>
<path fill-rule="evenodd" clip-rule="evenodd" d="M94.7564 119.089L91.3673 116.367C91.2427 118.516 91.8752 120.064 93.2647 121.013L94.7564 119.089Z" fill="white"/>
<path fill-rule="evenodd" clip-rule="evenodd" d="M101.204 103.512C99.6003 102.561 97.9325 102.245 96.2002 102.561L101.204 103.512Z" fill="#434A54"/>
<path d="M101.204 103.512C99.6003 102.561 97.9325 102.245 96.2002 102.561" stroke="#434A54" stroke-width="0.762"/>
</g>
<path d="M77.4168 74.0774C70.5502 77.7595 66.2823 82.802 64.6131 89.2048" stroke="white" stroke-width="0.762"/>
<path d="M105.349 95.5298C101.37 102.568 93.5387 103.531 81.8548 98.4204" stroke="#7D1C1C" stroke-width="0.762"/>
<path d="M159.369 189.344H140.857V200.363H159.369V189.344Z" fill="#6276C4"/>
<path d="M180.966 198.235H118.38V202.642H180.966V198.235Z" fill="#849DFF"/>
<path d="M159.369 160.769H140.857V189.419H159.369V160.769Z" fill="#849DFF"/>
<path d="M136.009 163.414H124.991V167.821H136.009V163.414Z" fill="#849DFF"/>
<path d="M136.009 172.67H124.991V177.078H136.009V172.67Z" fill="#B1C1FF"/>
<path d="M138.213 167.821H122.787V170.466H138.213V167.821Z" fill="#B1C1FF"/>
<path fill-rule="evenodd" clip-rule="evenodd" d="M109.235 108.096L129.199 126.813L123.586 132.426L103.846 113.919L109.235 108.096Z" fill="#B1C1FF"/>
<path d="M110.3 106.918L102.456 115.214" stroke="#849DFF" stroke-width="3.049" stroke-linecap="round"/>
<path fill-rule="evenodd" clip-rule="evenodd" d="M122.787 131.677H139.535V146.664L122.787 140.052V131.677Z" fill="#B1C1FF"/>
<path d="M138.213 170.466H122.787V173.11H138.213V170.466Z" fill="#849DFF"/>
<path fill-rule="evenodd" clip-rule="evenodd" d="M131.161 123.303C135.786 123.303 139.535 127.051 139.535 131.675V131.678H122.787V131.675C122.787 127.051 126.536 123.303 131.161 123.303Z" fill="#849DFF"/>
<path d="M139.535 132.559H122.787V133.881H139.535V132.559Z" fill="#849DFF"/>
<path fill-rule="evenodd" clip-rule="evenodd" d="M122.787 134.774V135.979L139.535 144.123V134.774H122.787Z" fill="#B1C1FF"/>
<path fill-rule="evenodd" clip-rule="evenodd" d="M122.787 137.429L139.535 145.948V149.284L122.787 140.309V137.429Z" fill="#849DFF"/>
<path fill-rule="evenodd" clip-rule="evenodd" d="M122.787 140.334L130.28 142.621V153.641H122.787V140.334Z" fill="#849DFF"/>
<path fill-rule="evenodd" clip-rule="evenodd" d="M139.535 136.537L173.707 145.157C176.466 145.853 178.399 148.334 178.399 151.179V172.567C178.399 173.496 178.191 174.412 177.789 175.25L174.789 181.512C173.756 183.667 171.577 185.039 169.187 185.039H158.967V155.072C158.967 153.35 157.931 151.796 156.341 151.132L139.535 144.123V136.537Z" fill="#849DFF"/>
<path d="M147.379 156.361H112.298C111.762 156.361 111.328 156.795 111.328 157.331V157.595C111.328 158.13 111.762 158.565 112.298 158.565H147.379C147.915 158.565 148.35 158.13 148.35 157.595V157.331C148.35 156.795 147.915 156.361 147.379 156.361Z" fill="#849DFF"/>
<path d="M147.379 159.446H112.298C111.762 159.446 111.328 159.881 111.328 160.417V160.68C111.328 161.216 111.762 161.65 112.298 161.65H147.379C147.915 161.65 148.35 161.216 148.35 160.68V160.417C148.35 159.881 147.915 159.446 147.379 159.446Z" fill="#B1C1FF"/>
<path d="M167.963 180.968C171.006 180.968 173.473 178.502 173.473 175.459C173.473 172.416 171.006 169.949 167.963 169.949C164.92 169.949 162.454 172.416 162.454 175.459C162.454 178.502 164.92 180.968 167.963 180.968Z" fill="#6276C4"/>
<path d="M145.926 180.968C148.969 180.968 151.435 178.502 151.435 175.459C151.435 172.416 148.969 169.949 145.926 169.949C142.883 169.949 140.416 172.416 140.416 175.459C140.416 178.502 142.883 180.968 145.926 180.968Z" fill="#6276C4"/>
<path fill-rule="evenodd" clip-rule="evenodd" d="M139.093 164.837C138.491 164.685 136.177 166.357 134.017 168.177C133.945 166.895 133.613 166.042 133.023 165.617C132.079 164.938 132.275 168.044 131.586 168.727C131.109 169.198 130.691 170.456 130.477 171.495C130.392 171.591 130.314 171.681 130.245 171.765C128.634 173.736 125.514 184.394 124.536 185.745C123.883 186.646 122.713 186.965 121.024 186.702V196.839C122.59 197.042 125.777 196.299 130.584 194.61C137.795 192.076 140.635 178.881 140.959 178.875C141.176 178.87 142.41 177.993 144.661 176.242C144.808 176.413 145.318 176.661 146.192 176.988C145.707 177.947 145.96 178.676 146.952 179.173C146.952 179.173 148.121 177.326 148.442 176.242C148.656 175.519 148.375 174.916 147.601 174.434C148.276 174.588 148.979 174.685 149.118 173.693C149.211 173.032 148.418 172.123 146.739 170.965C146.739 170.965 148.246 171.519 148.465 170.308C148.685 169.097 145.766 167.456 143.998 166.225C142.818 165.404 141.806 165.201 140.959 165.617C140.411 165.272 139.789 165.012 139.093 164.837Z" fill="#FFAE9C"/>
<path d="M147.601 174.433L144.85 173.361L143.562 173.897" stroke="#7D1C1C" stroke-width="0.762"/>
<path d="M146.739 170.965L144.055 169.949L141.655 170.731" stroke="#7D1C1C" stroke-width="0.762"/>
<path d="M140.959 165.617L139.382 166.337" stroke="#7D1C1C" stroke-width="0.762"/>
<mask id="mask2_1101_523" style="mask-type:alpha" maskUnits="userSpaceOnUse" x="12" y="111" width="111" height="95">
<path d="M62.4451 111.941L74.0378 127.948L72.9395 132.531C74.0306 141.882 75.1795 149.165 76.3864 154.377C77.5933 159.59 80.0635 169.377 83.797 183.737L122.126 181.944L122.787 199.209C91.8474 201.931 74.6695 202.612 71.2534 201.251C67.8372 199.89 63.888 192.926 59.4058 180.358C60.0465 182.551 61.0597 185.445 62.4451 189.041C63.8306 192.636 65.9985 197.996 68.9488 205.122H12.1401C19.0667 189.905 22.53 180.163 22.53 175.895C22.53 169.494 25.7983 128.947 58.3432 115.518L62.4451 111.941Z" fill="white"/>
</mask>
<g mask="url(#mask2_1101_523)">
<path d="M62.4451 111.941L74.0378 127.948L72.9395 132.531C74.0306 141.882 75.1795 149.165 76.3864 154.377C77.5933 159.59 80.0635 169.377 83.797 183.737L122.126 181.944L122.787 199.209C91.8474 201.931 74.6695 202.612 71.2534 201.251C67.8372 199.89 63.888 192.926 59.4058 180.358C60.0465 182.551 61.0597 185.445 62.4451 189.041C63.8306 192.636 65.9985 197.996 68.9488 205.122H12.1401C19.0667 189.905 22.53 180.163 22.53 175.895C22.53 169.494 25.7983 128.947 58.3432 115.518L62.4451 111.941Z" fill="#F3F7FF"/>
<path fill-rule="evenodd" clip-rule="evenodd" d="M58.0795 115.422L70.5911 130.979L78.868 164.419L73.0932 131.631L74.4973 126.506L62.5989 111.184L58.0795 115.422Z" fill="#E7EEFF"/>
<path fill-rule="evenodd" clip-rule="evenodd" d="M59.9877 182.009L51.8345 160.112C51.0628 171.407 51.0628 178.067 51.8345 180.094C52.6063 182.12 57.3104 187.863 65.9469 197.323C65.7913 196.557 64.894 194.327 63.255 190.632C61.6161 186.937 60.527 184.063 59.9877 182.009Z" fill="#D6DFF3"/>
</g>
<path fill-rule="evenodd" clip-rule="evenodd" d="M172.088 202.202H44.0681L46.7123 220.933H168.689L172.088 202.202Z" fill="#B1C1FF"/>
<path fill-rule="evenodd" clip-rule="evenodd" d="M48.3013 202.202H-6.351L-3.7068 207.492H48.3013V202.202Z" fill="#849DFF"/>
<path d="M41.455 159.447H46.7001C46.9144 159.447 47.0882 159.62 47.0882 159.835V167.486C47.0882 167.7 46.9144 167.874 46.7001 167.874H41.455C41.2406 167.874 41.0669 167.7 41.0669 167.486V159.835C41.0669 159.62 41.2406 159.447 41.455 159.447Z" fill="#849DFF"/>
<path d="M39.0466 163.059H49.109C49.3233 163.059 49.4971 163.232 49.4971 163.447V165.078C49.4971 165.293 49.3233 165.466 49.109 165.466H39.0466C38.8322 165.466 38.6585 165.293 38.6585 165.078V163.447C38.6585 163.232 38.8322 163.059 39.0466 163.059Z" fill="#434A54" stroke="#434A54" stroke-width="0.762"/>
<path fill-rule="evenodd" clip-rule="evenodd" d="M53.8733 189.417H33.915L28.8375 197.98C27.7368 199.875 27.2954 201.052 27.5134 201.511C27.7794 202.07 29.6301 201.668 30.3039 201.942L56.8889 201.92C59.0097 202.129 60.0701 201.808 60.0701 200.956C60.0701 200.104 58.0045 196.258 53.8733 189.417Z" fill="#77C5FF"/>
<path fill-rule="evenodd" clip-rule="evenodd" d="M48.3063 165.466V179.476C48.3063 179.609 48.3405 179.74 48.4056 179.856L60.1533 200.786C60.3631 201.16 60.2301 201.633 59.8561 201.843C59.74 201.908 59.6092 201.942 59.4761 201.942H28.0667C27.6379 201.942 27.2903 201.595 27.2903 201.166C27.2903 201.027 27.3274 200.891 27.3978 200.772L39.7233 179.861C39.7937 179.742 39.8308 179.606 39.8308 179.467V165.466" fill="#434A54"/>
<path d="M48.3063 165.466V179.476C48.3063 179.609 48.3405 179.74 48.4056 179.856L60.1533 200.786C60.3631 201.16 60.2301 201.633 59.8561 201.843C59.74 201.908 59.6092 201.942 59.4761 201.942H28.0667C27.6379 201.942 27.2903 201.595 27.2903 201.166C27.2903 201.027 27.3274 200.891 27.3978 200.772L39.7233 179.861C39.7937 179.742 39.8308 179.606 39.8308 179.467V165.466" stroke="#434A54" stroke-width="0.762"/>
<path d="M46.1451 166.9V172.066" stroke="white" stroke-width="1.525"/>
<path d="M46.145 176.205V180.26L55.059 196.191" stroke="white" stroke-width="1.525"/>
<path d="M73.6061 172.367H81.2601C81.4744 172.367 81.6482 172.541 81.6482 172.755V174.387C81.6482 174.601 81.4744 174.775 81.2601 174.775H73.6061C73.3917 174.775 73.218 174.601 73.218 174.387V172.755C73.218 172.541 73.3917 172.367 73.6061 172.367Z" fill="#434A54" stroke="#434A54" stroke-width="0.762"/>
<path fill-rule="evenodd" clip-rule="evenodd" d="M80.4439 187.597H74.4224V198.252C74.4224 199.914 75.7704 201.262 77.4332 201.262C79.0959 201.262 80.4439 199.914 80.4439 198.252V187.597Z" fill="#77C5FF"/>
<path d="M78.7161 181.604V197.174M78.7161 174.775V179.303V174.775Z" stroke="white" stroke-width="1.525"/>
<path fill-rule="evenodd" clip-rule="evenodd" d="M80.4439 174.775H74.4224V198.251C74.4224 199.914 75.7704 201.261 77.4332 201.261C79.0959 201.261 80.4439 199.914 80.4439 198.251V174.775Z" fill="#434A54" stroke="#434A54" stroke-width="0.762"/>
<path d="M84.4441 172.367H92.0981C92.3125 172.367 92.4862 172.541 92.4862 172.755V174.387C92.4862 174.601 92.3125 174.775 92.0981 174.775H84.4441C84.2298 174.775 84.056 174.601 84.056 174.387V172.755C84.056 172.541 84.2298 172.367 84.4441 172.367Z" fill="#434A54" stroke="#434A54" stroke-width="0.762"/>
<path fill-rule="evenodd" clip-rule="evenodd" d="M91.2819 178.341H85.2605V198.252C85.2605 199.914 86.6084 201.262 88.2712 201.262C89.934 201.262 91.2819 199.914 91.2819 198.252V178.341Z" fill="#FFD500"/>
<path d="M89.5542 181.604V197.174M89.5542 174.775V179.303V174.775Z" stroke="white" stroke-width="1.525"/>
<path fill-rule="evenodd" clip-rule="evenodd" d="M91.2819 174.775H85.2605V198.251C85.2605 199.914 86.6084 201.261 88.2712 201.261C89.934 201.261 91.2819 199.914 91.2819 198.251V174.775Z" fill="#434A54" stroke="#434A54" stroke-width="0.762"/>
<path d="M95.2827 172.367H102.937C103.151 172.367 103.325 172.541 103.325 172.755V174.387C103.325 174.601 103.151 174.775 102.937 174.775H95.2827C95.0684 174.775 94.8946 174.601 94.8946 174.387V172.755C94.8946 172.541 95.0684 172.367 95.2827 172.367Z" fill="#434A54" stroke="#434A54" stroke-width="0.762"/>
<path fill-rule="evenodd" clip-rule="evenodd" d="M102.121 183.63H96.0991V198.252C96.0991 199.914 97.447 201.261 99.1098 201.261C100.773 201.261 102.121 199.914 102.121 198.252V183.63Z" fill="#004DE6"/>
<path d="M100.393 181.604V197.174M100.393 174.775V179.303V174.775Z" stroke="white" stroke-width="1.525"/>
<path fill-rule="evenodd" clip-rule="evenodd" d="M102.121 174.775H96.0991V198.251C96.0991 199.914 97.447 201.261 99.1098 201.261C100.773 201.261 102.121 199.914 102.121 198.251V174.775Z" fill="#434A54" stroke="#434A54" stroke-width="0.762"/>
<path d="M108.142 202.202V181.999H69.6046V202.202" stroke="#6276C4" stroke-width="2.287"/>
<path d="M108.142 194.64H69.6049" stroke="#6276C4" stroke-width="2.287"/>
</g>
<mask id="mask3_1101_523" style="mask-type:alpha" maskUnits="userSpaceOnUse" x="168" y="189" width="179" height="145">
<path d="M168.332 265.969C191.824 223.471 208.295 199.487 217.743 194.016C231.916 185.81 294.435 190.034 312.986 200.831C325.353 208.03 336.389 231.69 346.094 271.811L310.213 276.015V333.468H204.832L208.861 274.041L168.332 265.969Z" fill="white"/>
</mask>
<g mask="url(#mask3_1101_523)">
<path d="M168.332 265.969C191.824 223.471 208.295 199.487 217.743 194.016C231.916 185.81 294.435 190.034 312.986 200.831C325.353 208.03 336.389 231.69 346.094 271.811L310.213 276.015V333.468H204.832L208.861 274.041L168.332 265.969Z" fill="#4568F9"/>
<path fill-rule="evenodd" clip-rule="evenodd" d="M310.155 337.625H205.066L205.111 333.846C247.555 329.732 279.447 301.195 300.788 248.234L310.155 278.778V337.625Z" fill="#0045CF"/>
<path fill-rule="evenodd" clip-rule="evenodd" d="M208.834 274.263L212.986 248.234L199.427 272.143L208.834 274.263Z" fill="#0045CF"/>
</g>
<path fill-rule="evenodd" clip-rule="evenodd" d="M233.422 133.7C232.206 132.066 226.068 115.522 231.738 109.234C237.871 102.431 270.739 104.025 274.172 105.43C278.091 107.034 280.168 109.52 280.402 112.889C286.287 112.815 289.496 115.271 290.029 120.258C290.561 125.245 288.64 133.898 284.263 146.215L276.044 145.597C249.579 140.283 235.372 136.318 233.422 133.7Z" fill="#2C1919"/>
<mask id="mask4_1101_523" style="mask-type:alpha" maskUnits="userSpaceOnUse" x="232" y="123" width="58" height="91">
<path d="M253.319 212.682C265.11 215.769 282.727 206.836 282.774 198.376C282.808 192.217 282.777 177.612 282.68 154.56C287.538 150.554 293.069 135.109 284.709 138.918C284.18 139.245 283.825 139.641 283.644 140.106C282.801 142.27 282.367 144.593 281.983 144.593C281.301 144.593 279.129 136.178 277.814 135.879C276.35 135.547 275.218 134.475 274.417 132.664C272.366 128.027 267.627 125.172 262.568 125.527C256.066 125.983 250.938 126.211 247.185 126.211C241.611 126.211 236.681 125.421 232.396 123.84C231.421 161.551 237.997 180.972 252.123 182.101L250.442 187.364C244.5 202.185 245.459 210.624 253.319 212.682Z" fill="white"/>
</mask>
<g mask="url(#mask4_1101_523)">
<path d="M253.319 212.682C265.11 215.769 282.727 206.836 282.774 198.376C282.808 192.217 282.777 177.612 282.68 154.56C287.538 150.554 293.069 135.109 284.709 138.918C284.18 139.245 283.825 139.641 283.644 140.106C282.801 142.27 282.367 144.593 281.983 144.593C281.301 144.593 279.129 136.178 277.814 135.879C276.35 135.547 275.218 134.475 274.417 132.664C272.366 128.027 267.627 125.172 262.568 125.527C256.066 125.983 250.938 126.211 247.185 126.211C241.611 126.211 236.681 125.421 232.396 123.84C231.421 161.551 237.997 180.972 252.123 182.101L250.442 187.364C244.5 202.185 245.459 210.624 253.319 212.682Z" fill="#F9A97D"/>
<path fill-rule="evenodd" clip-rule="evenodd" d="M251.361 182.115C260.281 181.943 267.016 179.106 271.567 173.604C271.311 180.293 266.045 186.272 255.769 191.541C245.493 196.809 244.024 193.667 251.361 182.115Z" fill="#F9A97D"/>
<path fill-rule="evenodd" clip-rule="evenodd" d="M280.042 139.797C280.196 140.42 280.196 141.294 280.042 142.419C277.832 158.465 271.25 165.357 267.052 165.357C260.467 165.357 259.347 163.621 254.225 161.725C249.103 159.829 244.352 160.011 240.111 162.875C237.283 164.784 235.359 163.798 234.339 159.916C237.732 174.37 243.707 181.859 252.261 182.382C265.093 183.168 272.421 173.493 275.269 169.168C276.505 167.29 279.014 158.497 282.794 142.787L280.042 139.797Z" fill="#160F0F"/>
<path fill-rule="evenodd" clip-rule="evenodd" d="M241.868 166.619H255C252.622 170.218 250.269 172.018 247.941 172.018C245.612 172.018 243.588 170.218 241.868 166.619Z" fill="#EEECEA"/>
<path d="M253.727 146.216C253.727 146.863 253.238 147.338 252.693 147.338C252.149 147.338 251.66 146.863 251.66 146.216C251.66 145.569 252.149 145.093 252.693 145.093C253.238 145.093 253.727 145.569 253.727 146.216Z" fill="#434A54" stroke="#434A54"/>
<path d="M240.438 146.216C240.438 146.863 239.949 147.338 239.404 147.338C238.86 147.338 238.371 146.863 238.371 146.216C238.371 145.569 238.86 145.093 239.404 145.093C239.949 145.093 240.438 145.569 240.438 146.216Z" fill="#434A54" stroke="#434A54"/>
<path fill-rule="evenodd" clip-rule="evenodd" d="M249.234 139.231C252.062 137.901 254.709 137.751 257.175 138.78L249.234 139.231ZM240.488 138.997C238.744 138.322 236.87 138.238 234.867 138.744L240.488 138.997Z" fill="#434A54"/>
<path d="M240.488 138.997C238.744 138.322 236.87 138.238 234.867 138.744M249.234 139.231C252.062 137.901 254.709 137.751 257.175 138.78L249.234 139.231Z" stroke="#434A54" stroke-width="3.376"/>
</g>
<path d="M237.417 153.121C240.944 153.121 243.803 150.262 243.803 146.736C243.803 143.21 240.944 140.351 237.417 140.351C233.89 140.351 231.03 143.21 231.03 146.736C231.03 150.262 233.89 153.121 237.417 153.121Z" stroke="#434A54" stroke-width="2.09"/>
<path d="M253.383 153.121C256.91 153.121 259.769 150.262 259.769 146.736C259.769 143.21 256.91 140.351 253.383 140.351C249.856 140.351 246.996 143.21 246.996 146.736C246.996 150.262 249.856 153.121 253.383 153.121Z" stroke="#434A54" stroke-width="2.09"/>
<path fill-rule="evenodd" clip-rule="evenodd" d="M243.803 146.215H247.068H243.803ZM259.777 146.215L284.123 138.708L259.777 146.215Z" fill="#434A54"/>
<path d="M259.777 146.215L284.123 138.708M243.803 146.215H247.068H243.803Z" stroke="#434A54" stroke-width="2.09"/>
<path fill-rule="evenodd" clip-rule="evenodd" d="M176.754 210.161L198.94 207.043C199.553 206.957 200.12 207.384 200.206 207.997L206.209 250.702C206.295 251.314 205.868 251.881 205.256 251.967L183.59 255.011C182.989 255.095 182.43 254.686 182.329 254.088L175.221 212.032L175.926 210.735C176.095 210.423 176.403 210.21 176.754 210.161Z" fill="#849DFF"/>
<path fill-rule="evenodd" clip-rule="evenodd" d="M176.18 211.204L197.816 208.164C198.429 208.078 198.995 208.505 199.081 209.117C199.081 209.119 199.082 209.12 199.082 209.121L204.796 250.892C204.879 251.504 204.453 252.067 203.842 252.153L182.206 255.193C181.593 255.279 181.027 254.852 180.941 254.24C180.94 254.238 180.94 254.237 180.94 254.236L175.226 212.465C175.142 211.854 175.569 211.29 176.18 211.204Z" fill="#B1C1FF"/>
<path d="M180.076 215.623C180.849 215.623 181.476 214.996 181.476 214.223C181.476 213.45 180.849 212.823 180.076 212.823C179.302 212.823 178.675 213.45 178.675 214.223C178.675 214.996 179.302 215.623 180.076 215.623Z" fill="white"/>
<path d="M189.039 231.865C192.288 231.865 194.922 229.232 194.922 225.984C194.922 222.737 192.288 220.104 189.039 220.104C185.791 220.104 183.157 222.737 183.157 225.984C183.157 229.232 185.791 231.865 189.039 231.865Z" fill="white"/>
<mask id="mask5_1101_523" style="mask-type:alpha" maskUnits="userSpaceOnUse" x="212" y="220" width="137" height="114">
<path d="M260.869 232.33C252.276 224.213 243.884 220.154 235.694 220.154C223.409 220.154 212.986 223.301 212.986 226.242C212.986 228.202 217.989 228.202 227.994 226.242C226.786 228.196 227.263 229.935 229.424 231.459C227.972 234.221 228.524 236.218 231.08 237.45C229.582 239.311 230.115 241.568 232.681 244.22C236.53 248.198 239.725 246.062 240.277 245.141C245.75 248.327 250.316 249.906 253.975 249.878C276.128 300.229 300.859 327.905 328.17 332.905C347.984 336.534 353.423 316.13 344.485 271.694L310.155 275.868L260.869 232.33Z" fill="white"/>
</mask>
<g mask="url(#mask5_1101_523)">
<path d="M260.869 232.33C252.276 224.213 243.884 220.154 235.694 220.154C223.409 220.154 212.986 223.301 212.986 226.242C212.986 228.202 217.989 228.202 227.994 226.242C226.786 228.196 227.263 229.935 229.424 231.459C227.972 234.221 228.524 236.218 231.08 237.45C229.582 239.311 230.115 241.568 232.681 244.22C236.53 248.198 239.725 246.062 240.277 245.141C245.75 248.327 250.316 249.906 253.975 249.878C276.128 300.229 300.859 327.905 328.17 332.905C347.984 336.534 353.423 316.13 344.485 271.694L310.155 275.868L260.869 232.33Z" fill="#F9A97D"/>
<path fill-rule="evenodd" clip-rule="evenodd" d="M310.155 275.868L330.92 296.796L328.257 272.677L310.155 274.515V275.868Z" fill="#F9A97D"/>
<path d="M235.816 241.388C236.844 242.701 238.453 244.007 240.642 245.307M227.8 226.332C229.223 225.754 231.007 225.562 233.151 225.754L227.8 226.332ZM229.424 231.459C230.312 231.267 231.026 231.15 231.568 231.11C232.109 231.069 232.824 231.079 233.711 231.138L229.424 231.459ZM231.08 237.45C232.36 237.25 233.36 237.25 234.079 237.45H231.08Z" stroke="#7D1C1C" stroke-width="1.1"/>
</g>
<path fill-rule="evenodd" clip-rule="evenodd" d="M172.155 246.306C172.297 241.109 173.035 237.041 174.369 234.102C175.048 227.125 175.321 222.206 175.186 219.342C177.489 219.41 178.856 220.831 179.288 223.604C179.72 226.377 180.022 228.744 180.195 230.705C188.83 221.397 197.06 217.176 204.886 218.043C205.703 219.057 204.5 220.346 201.276 221.908C196.441 224.252 192.005 226.747 189.893 230.301C196.865 225.925 202.651 223.53 207.251 223.115C214.15 222.494 207.416 227.051 202.816 228.706C199.75 229.81 196.403 232.054 192.773 235.438C201.988 231.744 207.5 230.031 209.31 230.301C211.119 230.57 207.042 233.727 197.078 239.772C200.207 239.574 203.249 238.757 206.202 237.322C210.633 235.17 208.832 239.369 206.202 241.153C203.573 242.937 193.679 252.392 190.753 253.118L186.705 269.382L208.86 274.041C203.149 303.391 194.021 320.024 181.477 323.94C175.772 325.722 155.862 320.165 160.486 290.878C163.568 271.353 167.458 256.496 172.155 246.306Z" fill="#F9A97D"/>
<path fill-rule="evenodd" clip-rule="evenodd" d="M186.705 269.75C189.423 281.516 190.103 290.738 188.744 297.415L199.454 271.921L186.705 269.75Z" fill="#F9A97D"/>
</svg>
