<svg width="27" height="29" viewBox="0 0 27 29" fill="none" xmlns="http://www.w3.org/2000/svg">
<path fill-rule="evenodd" clip-rule="evenodd" d="M17.9662 27.0627C20.5443 26.3535 23.2435 25.9957 25.8619 25.6679C26.4258 25.5992 26.9494 25.9826 26.9897 26.5229C27.0703 27.0635 26.6672 27.5579 26.1435 27.6267C23.6057 27.9422 20.9876 28.2798 18.5303 28.9626C18.0066 29.1107 17.4424 28.8059 17.2813 28.2814C17.1202 27.7574 17.4425 27.2112 17.9662 27.0627Z" fill="#434A54"/>
<path fill-rule="evenodd" clip-rule="evenodd" d="M10.1516 17.0068C14.3008 12.8559 18.9736 9.23925 23.0422 4.97693C23.4047 4.57885 24.0492 4.55753 24.4521 4.92914C24.8549 5.30115 24.895 5.9267 24.4922 6.32477C20.4236 10.5993 15.7508 14.2278 11.6016 18.391C11.1988 18.7796 10.5544 18.7851 10.1516 18.4029C9.78906 18.021 9.74878 17.3954 10.1516 17.0068Z" fill="#434A54"/>
<path fill-rule="evenodd" clip-rule="evenodd" d="M2.37645 1.0409C2.2556 3.41671 2.13499 5.79252 2.01414 8.16873C2.01414 8.71292 1.53051 9.13311 0.966547 9.10665C0.402586 9.0798 -7.62939e-06 8.61656 -7.62939e-06 8.07197C0.120841 5.69221 0.241454 3.31285 0.362303 0.933484C0.402586 0.389291 0.88606 -0.028135 1.45002 0.00148363C1.9737 0.0311023 2.41673 0.497104 2.37645 1.0409Z" fill="#434A54"/>
</svg>
