<svg width="56" height="56" viewBox="0 0 56 56" fill="none" xmlns="http://www.w3.org/2000/svg">
<circle cx="28" cy="28" r="25.5" fill="#4568F9" stroke="white" stroke-width="5"/>
<path d="M33.7158 26.5284H25.6627L29.164 23.0377C29.3638 22.8379 29.4761 22.5669 29.4761 22.2843C29.4761 22.0018 29.3638 21.7308 29.164 21.531C28.9642 21.3312 28.6933 21.219 28.4107 21.219C28.1282 21.219 27.8572 21.3312 27.6574 21.531L22.3523 26.8361C22.2557 26.937 22.18 27.056 22.1295 27.1862C22.0234 27.4445 22.0234 27.7343 22.1295 27.9926C22.18 28.1228 22.2557 28.2418 22.3523 28.3427L27.6574 33.6478C27.756 33.7472 27.8734 33.8262 28.0027 33.88C28.132 33.9339 28.2706 33.9616 28.4107 33.9616C28.5508 33.9616 28.6895 33.9339 28.8187 33.88C28.948 33.8262 29.0654 33.7472 29.164 33.6478C29.2635 33.5491 29.3424 33.4318 29.3963 33.3025C29.4501 33.1732 29.4779 33.0345 29.4779 32.8945C29.4779 32.7544 29.4501 32.6157 29.3963 32.4864C29.3424 32.3571 29.2635 32.2398 29.164 32.1411L25.6627 28.6504H33.7158C33.9972 28.6504 34.267 28.5386 34.466 28.3397C34.665 28.1407 34.7768 27.8708 34.7768 27.5894C34.7768 27.308 34.665 27.0381 34.466 26.8392C34.267 26.6402 33.9972 26.5284 33.7158 26.5284Z" fill="white"/>
</svg>
