<svg width="181" height="35" viewBox="0 0 181 35" fill="none" xmlns="http://www.w3.org/2000/svg">
<g clip-path="url(#clip0_1316_325)">
<g clip-path="url(#clip1_1316_325)">
<path d="M45.5621 21.2049C45.6026 21.1525 45.6621 21.118 45.7278 21.1089C45.7935 21.0998 45.8601 21.1167 45.9134 21.156H45.9401C47.3143 22.4788 49.1509 23.2146 51.0598 23.2073C53.017 23.2073 53.9778 22.2793 53.9778 21.3292C53.9778 20.0727 52.5188 19.6509 50.5884 19.2025C47.8484 18.5764 44.3299 17.8216 44.3299 14.0877C44.3299 11.3038 46.7452 9.04834 50.6862 9.04834C53.2616 9.04834 55.41 9.79869 57.0514 11.2283C57.0954 11.2711 57.1228 11.3281 57.1285 11.3891C57.1342 11.4502 57.1179 11.5112 57.0825 11.5613L55.3923 13.7813C55.3512 13.8321 55.2919 13.8647 55.227 13.8722C55.1621 13.8796 55.0968 13.8614 55.0453 13.8213C53.7485 12.7524 52.1189 12.1683 50.4371 12.1696C48.8314 12.1696 47.9729 12.8756 47.9729 13.8701C47.9729 15.0023 49.3785 15.353 51.3134 15.8015C54.0756 16.4231 57.594 17.2578 57.594 20.9651C57.594 24.0242 55.4012 26.3374 50.8864 26.3374C47.7727 26.3374 45.5042 25.3207 43.9341 23.8244C43.8914 23.7826 43.8652 23.7269 43.8603 23.6673C43.8554 23.6078 43.8721 23.5485 43.9074 23.5003L45.5621 21.2049Z" fill="#4568F9"/>
<path d="M65.4315 13.6216C69.0478 13.6216 71.512 16.3344 71.512 20.2815V20.7743C71.5098 20.8309 71.4859 20.8844 71.4454 20.9241C71.4049 20.9637 71.3508 20.9863 71.2941 20.9874H62.4914C62.7405 22.901 64.6042 24.4239 67.6867 23.5404C68.131 23.4087 68.5409 23.1813 68.8877 22.8744C68.926 22.8401 68.9708 22.8138 69.0194 22.797C69.0681 22.7802 69.1196 22.7732 69.1709 22.7765C69.2223 22.7798 69.2725 22.7933 69.3185 22.8162C69.3646 22.8392 69.4056 22.871 69.4392 22.9099L69.4704 22.9499L70.5201 24.4994C70.5514 24.5429 70.5656 24.5964 70.5598 24.6497C70.5541 24.7029 70.5288 24.7522 70.489 24.788C69.0961 25.8463 67.3814 26.3949 65.6317 26.342C61.9398 26.342 59.1509 23.8556 59.1509 19.9751C59.1509 16.4498 61.7307 13.6216 65.4315 13.6216ZM62.5403 18.8385H68.3228C68.3447 18.8389 68.3662 18.8316 68.3832 18.8178C68.4003 18.8039 68.412 18.7846 68.4162 18.763C68.3626 18.0258 68.0192 17.3396 67.461 16.854C66.9028 16.3683 66.1749 16.1225 65.436 16.1701C64.7047 16.1458 63.9913 16.3988 63.4392 16.8782C62.8871 17.3576 62.5374 18.0278 62.4602 18.7541C62.4581 18.7762 62.4635 18.7983 62.4757 18.8169C62.4878 18.8354 62.5059 18.8493 62.527 18.8563L62.5403 18.8385Z" fill="#4568F9"/>
<path d="M74.3588 9.05762H77.0988C77.159 9.05762 77.2167 9.08147 77.2592 9.12394C77.3018 9.1664 77.3257 9.224 77.3257 9.28405V26.1203C77.3257 26.1803 77.3018 26.2379 77.2592 26.2804C77.2167 26.3229 77.159 26.3467 77.0988 26.3467H74.3588C74.3292 26.3467 74.2999 26.3408 74.2727 26.3294C74.2454 26.318 74.2207 26.3012 74.1999 26.2801C74.1792 26.2591 74.1629 26.2341 74.152 26.2066C74.1411 26.1792 74.1358 26.1498 74.1364 26.1203V9.28405C74.1358 9.25453 74.1411 9.22518 74.152 9.19774C74.1629 9.17029 74.1792 9.14529 74.1999 9.1242C74.2207 9.10311 74.2454 9.08636 74.2727 9.07493C74.2999 9.0635 74.3292 9.05761 74.3588 9.05762Z" fill="#4568F9"/>
<path d="M81.5202 17.0492H79.5452C79.54 17.0492 79.5348 17.0482 79.5299 17.0462C79.5251 17.0442 79.5206 17.0412 79.5169 17.0375C79.5132 17.0338 79.5103 17.0294 79.5083 17.0246C79.5062 17.0197 79.5052 17.0145 79.5052 17.0093V14.3053C79.5045 14.2999 79.505 14.2944 79.5068 14.2892C79.5085 14.284 79.5114 14.2793 79.5153 14.2755C79.5192 14.2716 79.5239 14.2687 79.5291 14.2669C79.5343 14.2652 79.5398 14.2646 79.5452 14.2654H81.5202V13.2664C81.5202 10.6291 83.2282 9.04846 85.6168 9.04846C86.4056 9.03202 87.1872 9.20084 87.8987 9.54129C87.9049 9.54789 87.9084 9.55663 87.9084 9.56571C87.9084 9.5748 87.9049 9.58353 87.8987 9.59013L87.3026 11.7701C87.3026 11.7701 87.2759 11.8012 87.2582 11.7701C86.9549 11.6129 86.6167 11.5349 86.2751 11.5437C85.3855 11.5437 84.7672 12.1431 84.7672 13.2975V14.2476H87.1914C87.1969 14.2469 87.2024 14.2474 87.2076 14.2492C87.2128 14.2509 87.2175 14.2538 87.2214 14.2577C87.2252 14.2616 87.2282 14.2663 87.2299 14.2715C87.2317 14.2766 87.2322 14.2822 87.2315 14.2876V16.9915C87.2315 17.0021 87.2272 17.0123 87.2197 17.0198C87.2122 17.0273 87.202 17.0315 87.1914 17.0315H84.7672V26.2932C84.768 26.2992 84.7673 26.3053 84.7653 26.311C84.7633 26.3167 84.7601 26.3219 84.7558 26.3261C84.7515 26.3304 84.7463 26.3337 84.7406 26.3356C84.7349 26.3376 84.7288 26.3383 84.7228 26.3376H81.6091C81.6035 26.3376 81.5979 26.3364 81.5927 26.3342C81.5875 26.3319 81.5829 26.3285 81.5791 26.3243C81.5753 26.3201 81.5725 26.3152 81.5708 26.3098C81.569 26.3044 81.5685 26.2988 81.5691 26.2932V17.0492H81.5202Z" fill="#4568F9"/>
<path d="M89.411 9.32374C89.4104 9.28626 89.4174 9.24904 89.4315 9.21429C89.4456 9.17955 89.4665 9.14798 89.4931 9.12148C89.5196 9.09497 89.5512 9.07406 89.586 9.05999C89.6209 9.04593 89.6581 9.03899 89.6957 9.03959H96.0253C101.274 9.03959 104.921 12.6493 104.921 17.6886C104.921 22.7279 101.283 26.3198 96.0253 26.3198H89.6957C89.6581 26.3204 89.6209 26.3135 89.586 26.2994C89.5512 26.2853 89.5196 26.2644 89.4931 26.2379C89.4665 26.2114 89.4456 26.1798 89.4315 26.1451C89.4174 26.1104 89.4104 26.0731 89.411 26.0357V9.32374ZM96.0253 23.1852C99.3435 23.1852 101.274 20.5213 101.274 17.6975C101.274 14.736 99.4681 12.1831 96.0253 12.1831H93.2942C93.2104 12.1831 93.1301 12.2163 93.0709 12.2754C93.0116 12.3345 92.9784 12.4147 92.9784 12.4983V22.8922C92.9778 22.9339 92.9855 22.9754 93.0011 23.0142C93.0167 23.0529 93.0399 23.0882 93.0693 23.118C93.0987 23.1477 93.1337 23.1713 93.1723 23.1874C93.2109 23.2036 93.2523 23.2119 93.2942 23.2119H96.0253V23.1852Z" fill="#4568F9"/>
<path d="M112.888 13.6216C116.5 13.6216 118.968 16.3344 118.968 20.2815V20.9874H109.943C110.143 22.5192 111.38 23.7979 113.435 23.7979C114.604 23.8002 115.736 23.3915 116.633 22.6435C116.638 22.6379 116.644 22.6335 116.65 22.6304C116.657 22.6273 116.664 22.6257 116.671 22.6257C116.678 22.6257 116.685 22.6273 116.692 22.6304C116.698 22.6335 116.704 22.6379 116.709 22.6435L118.043 24.606C118.048 24.6109 118.052 24.6168 118.055 24.6233C118.057 24.6298 118.059 24.6367 118.059 24.6437C118.059 24.6507 118.057 24.6577 118.055 24.6641C118.052 24.6706 118.048 24.6765 118.043 24.6815C116.811 25.787 114.93 26.3242 113.079 26.3242C109.392 26.3242 106.598 23.8423 106.598 19.9574C106.607 16.4498 109.187 13.6216 112.888 13.6216ZM109.952 18.8385H115.81C115.825 18.8385 115.839 18.8331 115.85 18.8232C115.86 18.8133 115.867 18.7998 115.868 18.7852C115.845 18.4175 115.75 18.0578 115.588 17.7267C115.426 17.3957 115.2 17.0999 114.923 16.8561C114.646 16.6124 114.324 16.4255 113.975 16.3063C113.626 16.1871 113.256 16.1378 112.888 16.1612C112.151 16.1396 111.433 16.398 110.879 16.8842C110.325 17.3703 109.976 18.0481 109.903 18.7808C109.901 18.7884 109.901 18.7964 109.902 18.8042C109.904 18.812 109.907 18.8193 109.912 18.8257C109.917 18.8321 109.923 18.8373 109.93 18.8411C109.937 18.8448 109.944 18.847 109.952 18.8474V18.8385Z" fill="#4568F9"/>
<path d="M127.246 13.6216C129.661 13.6216 131.152 14.6383 131.97 15.7261C131.991 15.7534 132.003 15.787 132.003 15.8216C132.003 15.8561 131.991 15.8897 131.97 15.917L130.097 17.6575C130.07 17.6828 130.034 17.6968 129.997 17.6968C129.96 17.6968 129.924 17.6828 129.897 17.6575C129.609 17.2785 129.234 16.9737 128.804 16.7683C128.374 16.5629 127.901 16.4628 127.424 16.4765C125.489 16.4765 124.133 17.8795 124.133 19.984C124.133 22.0885 125.489 23.536 127.424 23.536C127.9 23.5443 128.371 23.4419 128.8 23.2369C129.23 23.0319 129.605 22.7299 129.897 22.3549C129.908 22.3406 129.922 22.3287 129.937 22.3198C129.953 22.3109 129.97 22.3052 129.988 22.3031C130.006 22.3011 130.024 22.3026 130.041 22.3077C130.059 22.3128 130.075 22.3213 130.088 22.3327L131.97 24.0732C131.991 24.1005 132.003 24.1341 132.003 24.1686C132.003 24.2032 131.991 24.2368 131.97 24.2641C131.054 25.4851 129.301 26.6084 126.33 26.3242C125.001 26.1995 123.75 25.6408 122.771 24.7345C121.793 23.8283 121.141 22.6251 120.917 21.3115C120.218 16.9071 123.065 13.6216 127.246 13.6216Z" fill="#4568F9"/>
<path d="M133.66 19.9799C133.66 16.5479 136.076 13.6353 140.065 13.6353C144.055 13.6353 146.497 16.5345 146.497 19.9799C146.497 23.4253 144.082 26.3512 140.065 26.3512C136.049 26.3512 133.66 23.4253 133.66 19.9799ZM143.179 19.9799C143.179 18.1018 142.049 16.4724 140.065 16.4724C138.082 16.4724 136.974 18.1018 136.974 19.9799C136.974 21.858 138.082 23.5319 140.065 23.5319C142.049 23.5319 143.179 21.9024 143.179 19.9799Z" fill="#4568F9"/>
<path d="M157.524 24.5082C157.08 25.0776 156.513 25.5383 155.863 25.8553C155.214 26.1723 154.501 26.3372 153.779 26.3374C150.71 26.3374 148.397 24.0242 148.397 19.9928C148.397 15.9613 150.687 13.6215 153.779 13.6215C154.505 13.6194 155.221 13.786 155.871 14.1082C156.521 14.4303 157.087 14.8991 157.524 15.4774V9.29254C157.526 9.22993 157.551 9.1703 157.595 9.12519C157.638 9.08009 157.697 9.0527 157.76 9.04834H160.5C160.531 9.04891 160.562 9.05571 160.591 9.06835C160.619 9.08099 160.645 9.09921 160.667 9.12195C160.688 9.14469 160.705 9.17149 160.716 9.20078C160.727 9.23007 160.732 9.26127 160.731 9.29254V26.1021C160.731 26.1638 160.707 26.223 160.664 26.267C160.62 26.311 160.562 26.3363 160.5 26.3374H157.76C157.697 26.3374 157.637 26.3127 157.593 26.2685C157.549 26.2244 157.524 26.1645 157.524 26.1021V24.5082ZM157.524 17.8483C157.2 17.423 156.782 17.0775 156.303 16.8382C155.825 16.5988 155.297 16.472 154.762 16.4675C152.951 16.4675 151.693 17.8971 151.693 20.0194C151.693 22.1417 152.951 23.527 154.762 23.527C155.298 23.5244 155.826 23.3985 156.305 23.159C156.784 22.9195 157.201 22.5729 157.524 22.1461V17.8483Z" fill="#4568F9"/>
<path d="M169.721 13.6216C173.337 13.6216 175.801 16.3344 175.801 20.2815V20.9786H166.78C166.981 22.5103 168.213 23.789 170.268 23.789C171.459 23.7914 172.61 23.3641 173.51 22.5858L174.929 24.6548C173.697 25.787 171.816 26.3376 169.934 26.3376C166.242 26.3376 163.453 23.8512 163.453 19.9662C163.44 16.4498 166.033 13.6216 169.721 13.6216ZM166.732 18.8385H172.705C172.687 18.4667 172.595 18.1022 172.435 17.7662C172.274 17.4302 172.048 17.1295 171.77 16.8816C171.492 16.6337 171.167 16.4435 170.814 16.3221C170.462 16.2007 170.088 16.1505 169.716 16.1745C168.971 16.1526 168.246 16.4166 167.69 16.9121C167.134 17.4077 166.789 18.0971 166.727 18.8385H166.732Z" fill="#4568F9"/>
<path d="M16.8988 10.7802C18.9248 10.7802 20.8678 9.97713 22.3008 8.5476C23.7337 7.11807 24.5394 5.17904 24.5406 3.15679C24.5406 -1.05226 9.27039 -1.05226 9.27039 3.15679C9.2698 4.15733 9.46665 5.14817 9.8497 6.07277C10.2327 6.99736 10.7945 7.83759 11.5029 8.54549C12.2112 9.25338 13.0523 9.81508 13.9782 10.1985C14.904 10.5819 15.8964 10.7796 16.8988 10.7802Z" fill="#4568F9"/>
<path d="M22.4811 19.6601C22.3576 19.6194 22.25 19.5408 22.1738 19.4356C22.0976 19.3304 22.0566 19.2038 22.0566 19.074C22.0566 18.9441 22.0976 18.8176 22.1738 18.7124C22.25 18.6072 22.3576 18.5286 22.4811 18.4879C25.3817 17.4232 27.9224 15.563 29.8109 13.121C31.6994 10.6791 32.859 7.75472 33.1564 4.68417C33.1787 4.41777 33.1965 4.14693 33.2143 3.88054C33.2184 3.78803 33.2042 3.69562 33.1724 3.60863C33.1407 3.52164 33.0919 3.44178 33.0291 3.37368C32.9662 3.30558 32.8905 3.25057 32.8062 3.21182C32.722 3.17308 32.6309 3.15137 32.5382 3.14795H29.9627C29.7847 3.14772 29.6134 3.21579 29.4842 3.3381C29.3551 3.46041 29.278 3.62759 29.2688 3.80506C29.2688 4.06258 29.2377 4.31121 29.2021 4.55985C28.8525 7.57164 27.4062 10.3501 25.1381 12.3669C22.87 14.3837 19.9385 15.498 16.901 15.498C13.8635 15.498 10.932 14.3837 8.66393 12.3669C6.39587 10.3501 4.94951 7.57164 4.59992 4.55985C4.56878 4.32009 4.56878 4.07146 4.5332 3.81394C4.52407 3.63647 4.44695 3.46929 4.31779 3.34698C4.18864 3.22467 4.01733 3.1566 3.8393 3.15683H1.26388C1.17141 3.15682 1.07987 3.17514 0.99456 3.21073C0.909248 3.24631 0.831864 3.29845 0.766899 3.36413C0.701934 3.4298 0.650681 3.50769 0.616114 3.59329C0.581547 3.67889 0.564353 3.77049 0.565531 3.86278V3.88498C0.565531 4.16025 0.601115 4.42665 0.623356 4.69305C0.920116 7.76589 2.08224 10.6921 3.97532 13.1333C5.86841 15.5745 8.41512 17.4309 11.3209 18.4879C11.4424 18.5308 11.5475 18.6101 11.6219 18.7151C11.6962 18.82 11.7362 18.9454 11.7362 19.074C11.7362 19.2025 11.6962 19.3279 11.6219 19.4329C11.5475 19.5379 11.4424 19.6172 11.3209 19.6601C8.41945 20.7234 5.87795 22.5833 3.98924 25.0255C2.10054 27.4677 0.941475 30.3928 0.645596 33.4638C0.601115 33.7435 0.565531 34.001 0.565531 34.2674C0.561358 34.3599 0.575573 34.4524 0.607357 34.5394C0.639141 34.6263 0.687864 34.7062 0.750717 34.7743C0.813571 34.8424 0.88931 34.8974 0.973567 34.9362C1.05782 34.9749 1.14893 34.9966 1.24164 35H3.8393C4.01733 35.0003 4.18864 34.9322 4.31779 34.8099C4.44695 34.6876 4.52407 34.5204 4.5332 34.3429C4.5332 34.0854 4.56433 33.8368 4.59992 33.5881C4.95362 30.5779 6.40069 27.8015 8.6672 25.7846C10.9337 23.7677 13.8624 22.6502 16.8988 22.6437C19.9365 22.6472 22.8673 23.7635 25.1352 25.7809C27.403 27.7983 28.8502 30.5764 29.2021 33.5881C29.2288 33.8368 29.2555 34.0854 29.2688 34.3429C29.278 34.5204 29.3551 34.6876 29.4842 34.8099C29.6134 34.9322 29.7847 35.0003 29.9627 35H32.5382C32.7234 35 32.901 34.9266 33.032 34.7959C33.1629 34.6651 33.2365 34.4878 33.2365 34.303V34.2763C33.2365 34.001 33.2009 33.7347 33.1787 33.4727C32.8831 30.3974 31.7216 27.4683 29.8286 25.0241C27.9356 22.5798 25.3883 20.7202 22.4811 19.6601Z" fill="#4568F9"/>
<path d="M178.546 13.515C178.548 13.5386 178.548 13.5625 178.546 13.5861C178.549 13.6007 178.549 13.6158 178.546 13.6305C178.549 13.6391 178.549 13.6485 178.546 13.6571H178.523H178.079V15.0957C178.08 15.1044 178.08 15.1135 178.079 15.1223C178.079 15.1223 178.079 15.1223 178.047 15.1223H177.994H177.816H177.758C177.75 15.1253 177.74 15.1253 177.732 15.1223C177.73 15.1181 177.729 15.1136 177.729 15.109C177.729 15.1044 177.73 15.0998 177.732 15.0957V13.666H177.287H177.265C177.263 13.6572 177.263 13.6481 177.265 13.6394C177.264 13.6246 177.264 13.6097 177.265 13.595C177.262 13.5713 177.262 13.5475 177.265 13.5239C177.262 13.5003 177.262 13.4765 177.265 13.4529C177.265 13.4529 177.265 13.4218 177.265 13.4085C177.265 13.3952 177.265 13.4085 177.265 13.3818H178.577C178.579 13.3906 178.579 13.3997 178.577 13.4085C178.579 13.4232 178.579 13.4382 178.577 13.4529C178.568 13.4745 178.558 13.4954 178.546 13.515Z" fill="#4568F9"/>
<path d="M180.854 15.0956C180.856 15.1044 180.856 15.1134 180.854 15.1222C180.846 15.1253 180.836 15.1253 180.827 15.1222H180.774H180.605H180.552C180.543 15.1253 180.534 15.1253 180.525 15.1222C180.523 15.1134 180.523 15.1044 180.525 15.0956V13.6526L179.982 15.0956C179.985 15.1058 179.985 15.1164 179.982 15.1267H179.951H179.893H179.733H179.68C179.668 15.1299 179.656 15.1299 179.644 15.1267V15.1L179.142 13.6437V15.0956C179.144 15.1044 179.144 15.1134 179.142 15.1222C179.133 15.1253 179.124 15.1253 179.115 15.1222H179.062H178.893H178.839C178.831 15.1253 178.821 15.1253 178.813 15.1222C178.811 15.1134 178.811 15.1044 178.813 15.0956V13.4972C178.811 13.4586 178.824 13.4207 178.848 13.3906C178.862 13.3779 178.878 13.3682 178.895 13.3621C178.913 13.3559 178.932 13.3536 178.95 13.3551H179.191C179.226 13.3504 179.262 13.3504 179.297 13.3551C179.326 13.3614 179.353 13.3735 179.377 13.3906C179.401 13.4069 179.421 13.4281 179.435 13.4528C179.451 13.4837 179.463 13.5166 179.471 13.5505L179.822 14.6516L180.223 13.586C180.234 13.5525 180.247 13.5199 180.263 13.4883C180.277 13.4635 180.295 13.441 180.316 13.4217C180.335 13.4047 180.358 13.3926 180.383 13.3862C180.412 13.3814 180.442 13.3814 180.472 13.3862H180.712C180.734 13.3813 180.757 13.3813 180.779 13.3862C180.796 13.3907 180.811 13.4 180.823 13.4128L180.85 13.4617C180.852 13.4808 180.852 13.5002 180.85 13.5194L180.854 15.0956Z" fill="#4568F9"/>
</g>
</g>
<defs>
<clipPath id="clip0_1316_325">
<rect width="180.976" height="35" fill="white"/>
</clipPath>
<clipPath id="clip1_1316_325">
<rect width="180.289" height="35" fill="white" transform="translate(0.565552)"/>
</clipPath>
</defs>
</svg>
