<svg width="748" height="359" viewBox="0 0 748 359" fill="none" xmlns="http://www.w3.org/2000/svg">
<g clip-path="url(#clip0_1100_794)">
<path d="M145.195 377.695H417.675V303.289C417.675 291.906 408.45 282.683 397.063 282.683H165.807C154.42 282.683 145.195 291.906 145.195 303.289V377.695Z" fill="#E1F0FB"/>
<path d="M156.748 388.454H429.227V314.049C429.227 302.666 420.002 293.443 408.616 293.443H177.318C165.931 293.443 156.706 302.666 156.706 314.049V388.454H156.748Z" fill="#EEF5FC"/>
<path d="M426.402 429.542H443.148C450.712 429.542 456.862 423.393 456.862 415.832V350.151C456.862 342.59 450.712 336.441 443.148 336.441H426.402C418.838 336.441 412.688 342.59 412.688 350.151V415.832C412.688 423.435 418.838 429.542 426.402 429.542Z" fill="#CFEDFC"/>
<path d="M114.527 434.029H141.621C146.317 434.029 150.14 430.206 150.14 425.512V349.486C150.14 344.792 146.317 340.97 141.621 340.97H114.527C109.831 340.97 106.008 344.792 106.008 349.486V425.512C106.008 430.206 109.831 434.029 114.527 434.029Z" fill="#ECF8FE"/>
<path d="M196.558 320.156C194.217 320.156 192.319 318.259 192.319 315.918C192.319 313.578 194.217 311.681 196.558 311.681C198.899 311.681 200.796 313.578 200.796 315.918C200.796 318.259 198.899 320.156 196.558 320.156Z" fill="#CFEDFC"/>
<path d="M278.422 322.69C276.081 322.69 274.184 320.793 274.184 318.453C274.184 316.112 276.081 314.215 278.422 314.215C280.763 314.215 282.661 316.112 282.661 318.453C282.661 320.793 280.763 322.69 278.422 322.69Z" fill="#CFEDFC"/>
<path d="M364.858 322.69C362.517 322.69 360.619 320.793 360.619 318.453C360.619 316.112 362.517 314.215 364.858 314.215C367.199 314.215 369.096 316.112 369.096 318.453C369.096 320.793 367.199 322.69 364.858 322.69Z" fill="#CFEDFC"/>
<path d="M196.558 349.984C194.217 349.984 192.319 348.087 192.319 345.747C192.319 343.407 194.217 341.51 196.558 341.51C198.899 341.51 200.796 343.407 200.796 345.747C200.796 348.087 198.899 349.984 196.558 349.984Z" fill="#CFEDFC"/>
<path d="M278.422 352.477C276.081 352.477 274.184 350.58 274.184 348.24C274.184 345.899 276.081 344.002 278.422 344.002C280.763 344.002 282.661 345.899 282.661 348.24C282.661 350.58 280.763 352.477 278.422 352.477Z" fill="#CFEDFC"/>
<path d="M364.858 352.477C362.517 352.477 360.619 350.58 360.619 348.24C360.619 345.899 362.517 344.002 364.858 344.002C367.199 344.002 369.096 345.899 369.096 348.24C369.096 350.58 367.199 352.477 364.858 352.477Z" fill="#CFEDFC"/>
<path d="M369.387 153.688V108.032H372.795V62.4161C372.795 53.6087 379.942 46.4631 388.752 46.4631H563.286C572.095 46.4631 579.243 53.6087 579.243 62.4161V423.767C579.243 432.574 572.095 439.72 563.286 439.72H388.711C379.901 439.72 372.753 432.574 372.753 423.767V250.279H369.346V171.76H372.753V153.688H369.387Z" fill="#4B4C61"/>
<path d="M378.28 67.8999H573.841V397.262H378.28V67.8999Z" fill="#F2F6FE"/>
<path d="M526.01 264.861L467.251 268.766C462.347 269.181 456.446 273.169 454.618 263.324L447.221 229.34C447.221 229.34 446.307 227.014 445.6 226.474C443.481 224.937 437.788 223.026 438.079 222.444L441.528 221.156C444.769 220.45 446.681 219.744 448.551 219.661L452.54 215.672C452.54 215.672 453.413 211.726 455.864 211.019C457.277 210.604 455.906 214.426 456.197 215.755C456.197 215.755 456.612 217.75 456.779 218.414C456.903 218.996 456.488 221.696 456.155 222.236L454.784 225.103L464.924 257.092L515.372 249.199L526.01 264.861Z" fill="#E59A6B"/>
<path d="M479.551 254.766C484.704 253.893 496.007 252.439 499.996 248.742C503.653 245.377 521.065 266.772 521.065 266.772L476.933 269.555L474.315 269.597H467.251C467.251 269.597 468.082 265.567 468.248 256.51C468.248 256.51 477.556 255.098 479.551 254.766Z" fill="#ADD1E9"/>
<path opacity="0.74" d="M515.746 265.608L488.361 254.059L499.29 249.905L515.746 265.608Z" fill="#B9D8E7"/>
<path d="M438.203 59.8404H508.557C509.97 59.8404 511.092 58.7187 511.092 57.3062C511.092 55.8937 509.97 54.772 508.557 54.772H438.203C436.79 54.772 435.668 55.8937 435.668 57.3062C435.627 58.6771 436.79 59.8404 438.203 59.8404Z" fill="#585870"/>
<path d="M487.945 242.884C487.613 243.341 484.87 248.035 484.579 248.492" stroke="#E6E6E6" stroke-width="5.4889" stroke-miterlimit="10" stroke-linecap="round"/>
<path d="M505.773 230.088L509.679 247.828L493.015 255.68L490.896 236.735L505.773 230.088Z" fill="#F0A170"/>
<path d="M407.577 234.866C407.868 235.157 410.527 233.993 411.525 235.198C412.231 236.071 413.519 237.358 413.935 238.314C414.392 239.477 414.475 243.839 414.683 244.338L415.015 244.836L452.872 267.229C452.872 267.229 463.968 264.57 470.991 262.908C478.263 261.205 481.92 279.692 474.066 280.98C463.137 282.808 466.004 283.805 455.698 283.14C449.465 282.725 448.758 284.968 446.099 283.14C431.679 273.377 413.395 252.896 409.239 250.237C407.078 249.614 402.216 248.825 400.097 244.67C399.557 243.59 398.892 241.928 400.263 239.726C401.344 237.982 404.045 234.866 404.045 234.866C404.045 234.866 400.305 228.676 400.471 227.637C400.512 227.305 401.011 226.848 402.008 227.928C403.089 229.05 405.582 232.996 406.372 233.744C407.12 234.367 406.954 234.284 407.577 234.866Z" fill="#F9A97D"/>
<path d="M472.237 221.655C473.816 223.233 474.564 224.438 474.938 226.515C475.312 228.51 475.396 231.21 475.686 235.697C475.977 240.682 482.626 244.546 490.646 244.338C497.337 244.172 505.025 241.18 510.842 233.619C523.558 217.002 516.993 201.589 499.332 199.179C481.67 196.77 477.473 213.138 477.473 213.138C476.393 217.334 474.98 217.293 474.024 217.75C473.068 218.29 469.121 218.622 472.237 221.655Z" fill="#F9A97D"/>
<path d="M481.255 186.218C472.902 202.503 493.638 202.752 496.215 208.984C498.168 213.72 497.129 222.07 497.129 222.07L497.919 222.486L499.664 223.275C499.664 223.275 501.659 219.578 501.991 218.955C503.321 216.213 507.767 217.667 505.606 223.192C503.404 228.842 499.747 222.735 501.95 231.459C504.152 240.184 507.144 238.439 507.144 238.439C517.159 230.213 523.226 220.782 521.398 208.984C519.528 197.185 510.094 190.372 499.373 189.292C486.075 187.963 490.065 178.657 490.065 178.657C490.065 178.657 485.452 181.731 482.377 185.013C481.837 186.716 483 190.954 483.831 193.405C482.335 191.411 481.172 188.669 481.255 186.218Z" fill="url(#paint0_radial_1100_794)"/>
<path d="M476.489 216.923C475.458 216.476 475.636 213.775 476.888 210.892C478.14 208.008 479.992 206.034 481.023 206.482C482.055 206.929 481.876 209.63 480.624 212.513C479.372 215.396 477.521 217.371 476.489 216.923Z" stroke="#625862" stroke-width="2.7577" stroke-miterlimit="10" stroke-linecap="round"/>
<path d="M481.172 212.557L500.578 220.492" stroke="#625862" stroke-width="2.9381" stroke-miterlimit="10" stroke-linecap="round"/>
<path d="M477.099 230.545C477.099 230.545 480.881 232.498 483.166 227.803" stroke="#CA835B" stroke-width="2.5676" stroke-miterlimit="10" stroke-linecap="round"/>
<path d="M555.681 375.742C537.272 388.87 487.779 381.6 487.779 381.6C484.538 364.276 492.35 335.402 489.94 315.586C488.361 302.5 488.735 295.728 488.361 284.511C488.361 284.469 481.089 260.374 481.13 260.332C487.571 257.881 488.112 256.386 491.519 254.558C492.433 254.059 490.605 251.276 491.519 250.985C494.802 249.905 498.251 249.282 502.199 247.869C507.435 246 508.889 244.836 511.3 244.712C512.38 244.629 512.255 247.163 513.793 248.035C514.915 248.658 516.411 249.988 517.782 250.902C523.018 254.391 534.612 284.137 540.222 307.693C544.17 324.227 555.681 362.032 555.681 375.742Z" fill="url(#paint1_linear_1100_794)"/>
<path d="M485.078 257.757C485.078 257.757 482.169 278.155 483.125 288.375C485.701 315.96 483.125 341.925 483.125 341.925" fill="#434A54"/>
<path d="M485.078 257.757C485.078 257.757 482.169 278.155 483.125 288.375C485.701 315.96 483.125 341.925 483.125 341.925" stroke="#434A54" stroke-width="5.0176" stroke-miterlimit="10" stroke-linecap="round"/>
<path d="M495.55 345.913L509.263 344.21L510.344 348.406L495.301 349.694L495.55 345.913Z" fill="white"/>
<path d="M480.66 351.751C479.461 351.436 479.044 349.075 479.728 346.479C480.411 343.883 481.937 342.034 483.136 342.35C484.334 342.665 484.752 345.025 484.068 347.622C483.384 350.218 481.858 352.067 480.66 351.751Z" fill="#D1D1D1"/>
<path d="M478.948 352.015C477.572 351.652 477.091 348.948 477.874 345.975C478.657 343.002 480.407 340.885 481.784 341.247C483.16 341.609 483.641 344.313 482.858 347.287C482.075 350.26 480.324 352.377 478.948 352.015Z" fill="#525252"/>
<path d="M484.538 248.492C483.042 251.234 481.13 256.095 485.078 257.757L484.538 248.492Z" fill="#434A54"/>
<path d="M484.538 248.492C483.042 251.234 481.13 256.095 485.078 257.757" stroke="#434A54" stroke-width="5.0176" stroke-miterlimit="10" stroke-linecap="round"/>
<path d="M451.127 284.303C455.324 285.799 463.968 286.007 468.954 286.339C473.318 286.63 486.366 285.882 490.065 285.674C492.807 285.508 497.877 285.259 500.703 284.553C499.913 278.404 493.763 259.834 485.743 260C475.022 260.208 464.924 264.487 458.025 266.024C456.363 266.398 453.496 267.146 453.496 267.146C451.875 284.636 446.598 283.473 446.598 283.473L451.127 284.303Z" fill="url(#paint2_linear_1100_794)"/>
<path opacity="0.9" d="M543.63 355.51H411.691C404.252 355.51 398.185 361.534 398.185 369.012C398.185 376.448 404.211 382.514 411.691 382.514H543.63C551.068 382.514 557.135 376.49 557.135 369.012C557.094 361.534 551.068 355.51 543.63 355.51Z" fill="white"/>
<path d="M446.14 151.279L459.563 151.57L465.131 165.03L467.541 128.887L472.944 151.694H482.668L486.574 169.434L491.228 142.222L496.049 158.757L498.334 152.733H508.682L514.749 164.573L521.19 133.955L528.504 152.733H535.9L539.474 144.216L542.84 161.79L547.661 151.487H555.806L559.92 130.341L562.953 166.567L566.485 150.074H573.841" stroke="#FAC4C6" stroke-width="4.3271" stroke-miterlimit="10"/>
<path d="M441.652 125.065H370.135C362.074 125.065 355.549 131.587 355.549 139.647V207.904C355.549 215.963 362.074 222.486 370.135 222.486H441.652C449.714 222.486 456.238 215.963 456.238 207.904V139.647C456.238 131.587 449.714 125.065 441.652 125.065Z" fill="#3F4053"/>
<g clip-path="url(#clip1_1100_794)">
<path d="M379.123 157.359C379.858 156.624 381.049 156.625 381.783 157.359C382.224 157.799 382.761 158.111 383.46 158.343L390.756 151.049C390.523 150.35 390.207 149.822 389.765 149.38C389.031 148.646 389.03 147.456 389.765 146.72C390.5 145.985 391.691 145.986 392.426 146.72C394.379 148.674 394.949 151.094 395.058 155.587C395.07 156.094 394.878 156.584 394.524 156.947C394.17 157.309 393.684 157.515 393.177 157.515H393.003C392.068 157.515 391.307 156.76 391.3 155.825L388.237 158.887C389.14 158.904 390.129 158.908 391.306 158.898L395.074 158.846C399.733 158.773 406.668 158.328 411.061 162.719C413.953 165.611 414.801 169.921 414.976 174.385C414.996 174.892 414.809 175.384 414.458 175.75C414.107 176.115 413.621 176.323 413.114 176.323H413.074C412.068 176.323 411.246 175.526 411.213 174.521C411.184 173.658 411.128 172.815 411.035 172.002C409.48 173.557 406.318 176.718 404.407 178.629C406.686 178.872 409.075 178.784 411.164 178.753L414.927 178.701C422.407 178.625 424.625 178.91 427.056 181.341C427.79 182.076 427.791 183.266 427.056 184.001C426.321 184.736 425.13 184.736 424.395 184.001C423.912 183.517 423.417 183.179 422.707 182.942L415.416 190.23C415.654 190.934 415.97 191.536 416.414 191.98C417.149 192.714 417.149 193.905 416.414 194.64C415.678 195.375 414.488 195.374 413.753 194.64C411.743 192.631 411.174 189.401 411.075 185.76C411.061 185.257 411.251 184.771 411.602 184.41C411.952 184.05 412.434 183.846 412.937 183.846H413.149C414.068 183.846 414.815 184.584 414.824 185.503L417.87 182.459C417.005 182.449 416.022 182.452 414.876 182.464L411.111 182.515C406.433 182.586 399.507 183.029 395.126 178.649C392.055 175.579 391.307 170.279 391.217 165.942C391.195 164.886 392.04 164.015 393.097 164.015C394.115 164.015 394.955 164.826 394.969 165.843C394.98 166.629 395.019 168.385 395.118 169.296C397.075 167.34 399.377 165.039 401.691 162.725C399.432 162.491 397.074 162.577 395.019 162.609L391.254 162.661C384.674 162.722 381.531 162.427 379.122 160.019C378.388 159.285 378.388 158.094 379.123 157.359ZM396.175 173.559C396.599 174.516 397.128 175.331 397.788 175.99C398.468 176.671 399.283 177.162 400.158 177.557L409.974 167.744C409.576 166.852 409.071 166.049 408.401 165.38C407.701 164.68 406.864 164.176 405.961 163.776C402.69 167.046 398.92 170.815 396.175 173.559Z" fill="white"/>
</g>
<path d="M452.914 267.229L446.473 285.425L453.454 286.921L458.067 265.816L452.914 267.229Z" fill="white"/>
<path d="M467.999 256.552L467.749 263.24L475.354 261.288L473.526 254.475L467.999 256.552Z" fill="#D9EBF9"/>
<path d="M500.703 284.511C500.703 284.511 491.935 302.915 489.982 315.586L487.945 285.799L500.703 284.511Z" fill="#ADD1E9"/>
<path d="M491.727 244.338C491.727 244.338 498.916 243.632 502.739 240.848C502.739 240.848 498.625 247.495 492.392 250.071L491.727 244.338Z" fill="#E08B66"/>
<path d="M493.846 254.599C493.846 254.599 509.43 246.997 513.128 247.454L510.593 242.925L490.896 251.234L493.846 254.599Z" fill="#F2F6FE"/>
<path d="M499.29 252.19C495.176 254.932 490.937 258.13 485.826 257.757L499.29 252.19Z" fill="#434A54"/>
<path d="M499.29 252.19C495.176 254.932 490.937 258.13 485.826 257.757" stroke="#434A54" stroke-width="5.0176" stroke-miterlimit="10" stroke-linecap="round"/>
<path d="M503.196 224.23C507.476 232.539 506.936 244.089 500.038 251.483" stroke="#E6E6E6" stroke-width="5.7922" stroke-miterlimit="10" stroke-linecap="round"/>
<path d="M503.238 226.225C501.884 226.225 500.786 225.127 500.786 223.774C500.786 222.42 501.884 221.323 503.238 221.323C504.592 221.323 505.69 222.42 505.69 223.774C505.69 225.127 504.592 226.225 503.238 226.225Z" fill="#524C4E"/>
<path d="M465.879 256.884C465.879 256.884 461.848 260.332 459.978 263.033C459.978 263.033 460.477 259.003 464.425 255.347L464.965 257.05L465.879 256.884Z" fill="#E08B66"/>
<path d="M311.334 125.231C301.305 125.231 293.174 117.103 293.174 107.076C293.174 97.0496 301.305 88.9214 311.334 88.9214C321.364 88.9214 329.494 97.0496 329.494 107.076C329.494 117.103 321.364 125.231 311.334 125.231Z" fill="#F3859C"/>
<path d="M304.062 101.385C306.015 99.432 309.215 99.432 311.21 101.385C313.163 99.432 316.362 99.432 318.357 101.385C320.31 103.337 320.31 106.536 318.357 108.53L314.783 112.103L311.21 115.676L307.636 112.103L304.062 108.53C302.109 106.536 302.109 103.337 304.062 101.385Z" fill="white"/>
<path d="M198.054 99.6812C177.899 99.6812 161.526 116.05 161.526 136.198C161.526 156.347 177.899 172.716 198.054 172.716C218.208 172.716 234.581 156.347 234.581 136.198C234.623 116.091 218.208 99.6812 198.054 99.6812ZM198.054 96.5654C219.954 96.5654 237.739 114.346 237.739 136.24C237.739 158.134 219.954 175.915 198.054 175.915C176.154 175.915 158.368 158.134 158.368 136.24C158.368 114.305 176.154 96.5654 198.054 96.5654Z" fill="#E4F5FD"/>
<path d="M198.054 105.871V112.643" stroke="#E4F5FD" stroke-width="5.5463" stroke-miterlimit="10" stroke-linecap="round"/>
<path d="M198.054 159.131V165.861" stroke="#E4F5FD" stroke-width="5.5463" stroke-miterlimit="10" stroke-linecap="round"/>
<path d="M213.346 109.984L209.98 115.8" stroke="#E4F5FD" stroke-width="5.5463" stroke-miterlimit="10" stroke-linecap="round"/>
<path d="M224.483 121.159L218.665 124.525" stroke="#E4F5FD" stroke-width="5.5463" stroke-miterlimit="10" stroke-linecap="round"/>
<path d="M228.597 136.406H221.865" stroke="#E4F5FD" stroke-width="5.5463" stroke-miterlimit="10" stroke-linecap="round"/>
<path d="M224.483 151.653L218.665 148.288" stroke="#E4F5FD" stroke-width="5.5463" stroke-miterlimit="10" stroke-linecap="round"/>
<path d="M213.346 162.828L209.98 156.971" stroke="#E4F5FD" stroke-width="5.5463" stroke-miterlimit="10" stroke-linecap="round"/>
<path d="M182.803 162.828L186.169 156.971" stroke="#E4F5FD" stroke-width="5.5463" stroke-miterlimit="10" stroke-linecap="round"/>
<path d="M171.624 151.653L177.484 148.288" stroke="#E4F5FD" stroke-width="5.5463" stroke-miterlimit="10" stroke-linecap="round"/>
<path d="M167.552 136.406H174.284" stroke="#E4F5FD" stroke-width="5.5463" stroke-miterlimit="10" stroke-linecap="round"/>
<path d="M171.624 121.159L177.484 124.525" stroke="#E4F5FD" stroke-width="5.5463" stroke-miterlimit="10" stroke-linecap="round"/>
<path d="M182.803 109.984L186.169 115.8" stroke="#E4F5FD" stroke-width="5.5463" stroke-miterlimit="10" stroke-linecap="round"/>
<path d="M198.054 123.735V136.24L191.072 140.021" stroke="#E4F5FD" stroke-width="5.5463" stroke-miterlimit="10" stroke-linecap="round"/>
<path d="M108.003 355.094C114.319 369.178 113.779 383.843 112.2 393.689C111.078 400.793 109.416 405.363 109.416 405.363H114.07C114.07 405.363 118.184 389.659 117.02 369.635C115.815 349.569 100.938 313.052 99.5256 296.559C98.7776 287.668 93.874 283.057 89.5107 283.306C85.7707 283.514 82.4463 287.211 82.4463 294.772C82.4047 316.791 108.003 355.094 108.003 355.094Z" fill="#DCF2FD"/>
<path d="M107.837 405.363C107.837 405.363 111.992 385.089 93.7493 372.585C75.4649 360.08 76.9193 353.017 83.2358 353.308C91.4638 353.682 113.447 367.599 111.036 399.962L110.247 405.322H107.837V405.363Z" fill="#DCF2FD"/>
<path d="M109.25 405.363C109.25 405.363 105.094 385.089 123.337 372.585C141.621 360.08 142.078 353.807 133.85 353.308C125.622 352.851 103.64 367.599 106.05 399.962L106.839 405.321H109.25V405.363Z" fill="#ADD1E9"/>
<path d="M62.7488 337.438C70.8937 350.94 103.058 348.946 110.039 365.439C116.979 381.932 110.995 405.363 110.995 405.363H113.364C116.73 391.736 117.228 380.727 115.94 371.795C115.94 371.795 115.94 371.671 115.898 371.546C115.898 371.504 115.898 371.421 115.857 371.38C115.857 371.297 115.815 371.172 115.815 371.089C115.441 368.804 114.984 366.685 114.402 364.691C114.112 363.694 113.821 362.739 113.488 361.783C107.92 346.121 96.118 338.601 88.0562 333.575C77.3348 326.927 62.4164 324.809 60.9619 331.123C60.5879 332.577 61.0866 334.696 62.7488 337.438Z" fill="#CFEDFC"/>
<path d="M111.577 343.171C111.577 343.171 105.052 296.933 117.145 275.87C129.238 254.807 137.798 269.098 133.809 285.217C129.82 301.295 115.982 333.865 117.145 353.931C118.309 373.997 121.301 370.632 115.524 405.363H112.366C112.366 405.363 122.672 383.22 111.577 343.171Z" fill="#E1F0FB"/>
<path d="M336.725 296.559L328.746 383.178L320.934 456.587L306.888 457.21C306.888 457.21 306.348 417.203 306.888 404.034C307.137 398.134 310.004 381.018 310.004 381.018L307.636 323.147L306.14 322.939L290.473 377.196C290.473 377.196 287.564 402.164 285.985 407.856C282.412 420.859 273.976 456.255 273.976 456.255L259.14 455.258C259.14 455.258 269.529 385.63 271.067 368.513C272.106 356.839 278.588 300.506 281.04 290.618L336.725 296.559Z" fill="#56516E"/>
<path d="M278.755 232.996C278.755 232.996 281.29 237.857 282.827 246.748C282.827 246.748 284.905 256.178 284.282 267.81C283.617 279.484 281.123 290.369 281.123 290.369C281.123 290.369 283.326 291.823 287.44 293.277C290.266 294.274 294.38 295.396 300.197 296.144C319.479 298.678 335.852 293.443 335.852 293.443C335.727 291.615 334.605 282.517 333.899 274.167C332.777 260.748 332.32 251.65 332.32 251.65C332.195 239.644 333.899 235.281 334.024 228.011H340.756C340.631 227.43 338.429 211.684 330.117 208.402C321.682 205.079 311.667 204.871 311.667 204.871C299.532 205.453 290.266 205.744 282.702 207.031C277.217 208.278 270.277 212.141 269.82 217.168C269.654 218.788 267.701 237.982 278.672 249.905C289.642 261.828 289.642 261.787 289.642 261.787L312.955 243.341L306.597 233.869L289.102 241.555L287.523 224.438" fill="url(#paint3_linear_1100_794)"/>
<path d="M307.303 201.257C306.514 197.518 309.672 195.15 312.955 194.527C314.95 194.153 316.861 192.865 318.191 192.158C321.224 190.538 319.604 182.437 319.77 180.318C319.936 178.241 325.422 178.283 323.801 176.081C321.889 174.668 320.601 173.464 319.728 172.342C316.404 168.229 318.606 165.612 317.277 161C315.905 156.264 313.578 152.941 312.747 151.902C312.581 151.694 312.498 151.57 312.456 151.528C312.456 151.57 312.539 151.653 312.664 151.861C313.661 153.398 317.484 159.879 312.747 160.959C289.227 166.484 289.102 184.805 289.102 184.805C289.102 184.805 295.335 189.998 295.418 198.39C295.46 199.969 295.169 201.921 294.546 203.708C292.759 204.996 289.767 206.034 289.06 206.283C289.06 206.283 292.551 215.091 304.394 215.091C318.066 215.091 314.783 204.954 314.783 204.954C314.783 204.954 310.877 204.497 308.55 203.915C308.592 203.832 307.47 201.963 307.303 201.257Z" fill="#F79D75"/>
<path d="M300.613 191.328C300.613 191.328 301.361 202.461 308.592 203.832C308.55 203.708 308.467 203.666 308.342 203.417C308.259 203.209 308.01 202.752 307.553 201.921C307.345 201.547 307.096 200.717 307.345 199.387C308.01 195.731 309.963 195.648 311.334 195.773L312.373 193.696C311.833 193.779 305.142 193.446 300.613 191.328Z" fill="#EC8B6C"/>
<path d="M336.309 215.382C338.47 219.993 340.672 228.053 340.672 228.053H333.608C333.608 228.053 333.774 226.391 333.733 223.94C333.691 219.702 331.322 211.85 330.076 208.444C330.076 208.444 334.564 211.684 336.309 215.382Z" fill="#D1E4F6"/>
<path d="M307.719 139.938C307.719 139.938 311.584 148.579 299.158 149.95C289.144 151.071 280.417 157.552 278.838 168.561C277.259 179.571 285.985 190.995 295.418 198.556C295.418 198.556 295.294 197.518 297.247 189.333C299.2 181.149 295.876 186.924 293.756 181.648C291.678 176.496 295.792 175.084 297.081 177.66C297.372 178.241 298.036 180.9 298.286 182.022C298.452 182.77 298.535 183.974 298.535 185.262C298.618 190.372 302.4 194.693 307.428 195.399C309.464 195.69 311.708 195.897 314.201 195.856C314.949 195.856 315.864 195.814 316.695 195.773C318.606 195.69 320.102 194.111 320.102 192.2L320.019 184.639C320.019 184.639 306.597 187.256 303.106 184.805C302.192 184.14 301.61 180.526 301.61 180.526C301.61 180.526 300.571 172.757 302.317 168.312C304.644 162.454 324.964 161.457 316.03 146.875C314.617 144.549 312.789 142.306 307.719 139.938Z" fill="url(#paint4_radial_1100_794)"/>
<path d="M318.44 187.713C318.44 187.713 317.11 190.123 314.202 188.42" stroke="#CA835B" stroke-width="2.7987" stroke-miterlimit="10" stroke-linecap="round"/>
<path d="M280.168 293.692C280.168 293.692 290.806 300.755 308.799 301.17C326.834 301.544 336.725 296.85 336.725 296.85L335.769 293.443C335.769 293.443 305.101 301.918 281.04 290.327L280.168 293.692Z" fill="#484858"/>
<path d="M326.793 295.271L329.702 294.772L330.741 300.381L327.873 300.879L326.793 295.271Z" fill="#5A5A6D"/>
<path d="M304.893 296.102L315.365 296.143L315.324 301.835L304.893 301.793V296.102Z" fill="#5A5A6D"/>
<path d="M291.637 294.232L294.504 294.897L293.341 300.422L290.515 299.799L291.637 294.232Z" fill="#5A5A6D"/>
<path d="M284.697 252.148L287.481 232.498L286.526 225.602C286.526 225.602 292.302 233.744 292.51 242.053C292.717 250.403 284.198 268.974 284.198 268.974L284.697 252.148Z" fill="#A1D4F3"/>
<path d="M338.761 210.895L332.112 231.667C331.904 232.373 331.156 232.788 330.45 232.622L319.978 230.462C319.147 230.296 318.648 229.465 318.897 228.634L325.38 207.239C325.588 206.491 326.377 206.076 327.125 206.283L337.764 209.067C338.553 209.275 339.01 210.105 338.761 210.895Z" fill="#054254"/>
<path d="M328.497 220.949C327.416 221.613 325.92 223.566 323.967 224.646C322.471 225.477 319.438 226.848 319.438 226.848C319.438 226.848 319.978 225.145 320.393 223.815C320.726 222.776 320.933 222.029 321.058 221.696C321.266 221.115 321.266 220.99 321.349 220.782C320.85 220.284 320.019 221.156 317.858 224.106C317.152 225.103 315.822 229.631 314.659 230.878C312.996 232.622 310.669 235.655 306.223 238.272L290.058 247.163L287.523 232.498L270.776 234.367C270.776 234.367 278.713 261.579 287.481 262.867C292.426 263.573 312.996 243.382 312.996 243.382C317.318 239.311 320.726 236.278 322.18 235.032C324.05 233.453 326.294 232.581 327.375 231.916C328.455 231.252 329.785 227.513 330.533 225.56C330.2 223.815 330.076 221.863 328.497 220.949Z" fill="#EC8B6C"/>
</g>
<defs>
<radialGradient id="paint0_radial_1100_794" cx="0" cy="0" r="1" gradientUnits="userSpaceOnUse" gradientTransform="translate(485.691 177.778) rotate(-158.875) scale(55.8573 55.846)">
<stop stop-color="#DBA67F"/>
<stop offset="0.0486564" stop-color="#D3A07A"/>
<stop offset="0.3407" stop-color="#AB7D5F"/>
<stop offset="0.6066" stop-color="#8D654C"/>
<stop offset="0.8352" stop-color="#7B5540"/>
<stop offset="1" stop-color="#75503C"/>
</radialGradient>
<linearGradient id="paint1_linear_1100_794" x1="494.43" y1="300.963" x2="555.793" y2="407.303" gradientUnits="userSpaceOnUse">
<stop offset="1.10059e-06" stop-color="#D9EBF9"/>
<stop offset="0.539" stop-color="#F3F3F9"/>
<stop offset="0.6699" stop-color="#EFF1F8"/>
<stop offset="0.8027" stop-color="#E3EAF6"/>
<stop offset="0.9359" stop-color="#CFE0F3"/>
<stop offset="1" stop-color="#C2D9F1"/>
</linearGradient>
<linearGradient id="paint2_linear_1100_794" x1="494.556" y1="273.18" x2="440.419" y2="273.18" gradientUnits="userSpaceOnUse">
<stop offset="1.10059e-06" stop-color="#D9EBF9"/>
<stop offset="0.539" stop-color="#F3F3F9"/>
<stop offset="0.6699" stop-color="#EFF1F8"/>
<stop offset="0.8027" stop-color="#E3EAF6"/>
<stop offset="0.9359" stop-color="#CFE0F3"/>
<stop offset="1" stop-color="#C2D9F1"/>
</linearGradient>
<linearGradient id="paint3_linear_1100_794" x1="269.544" y1="250.883" x2="340.697" y2="250.883" gradientUnits="userSpaceOnUse">
<stop offset="6.54685e-07" stop-color="#B7DEFF"/>
<stop offset="0.2112" stop-color="#BCE0FF"/>
<stop offset="0.4748" stop-color="#CCE8FF"/>
<stop offset="0.765" stop-color="#E5F3FF"/>
<stop offset="1" stop-color="white"/>
</linearGradient>
<radialGradient id="paint4_radial_1100_794" cx="0" cy="0" r="1" gradientUnits="userSpaceOnUse" gradientTransform="translate(312.002 139.043) rotate(-21.8268) scale(61.7237 61.7115)">
<stop stop-color="#745166"/>
<stop offset="1" stop-color="#575D74"/>
</radialGradient>
<clipPath id="clip0_1100_794">
<rect width="748" height="359" fill="white" transform="matrix(-1 0 0 1 748 0)"/>
</clipPath>
<clipPath id="clip1_1100_794">
<rect width="49.0355" height="49.022" fill="white" transform="matrix(-1 0 0 1 427.607 146.169)"/>
</clipPath>
</defs>
</svg>
