<svg width="57" height="56" viewBox="0 0 57 56" fill="none" xmlns="http://www.w3.org/2000/svg">
<circle cx="28.5" cy="28" r="28" fill="#F3E4F6"/>
<path opacity="0.2" d="M36.7273 24.9003C36.1817 24.9003 35.4591 24.8883 34.5594 24.8883C32.3651 24.8883 30.5609 23.0721 30.5609 20.8573V16.9713C30.5609 16.6655 30.3156 16.4166 30.0141 16.4166H23.6227C20.64 16.4166 18.2292 18.8647 18.2292 21.865V34.8848C18.2292 38.0325 20.7548 40.5833 23.8716 40.5833H33.388C36.3612 40.5833 38.7708 38.1509 38.7708 35.1482V25.4441C38.7708 25.1372 38.5268 24.8895 38.2229 24.8907C37.7132 24.8943 37.0994 24.9003 36.7273 24.9003Z" fill="#9E1CB5"/>
<path opacity="0.2" d="M33.4351 17.1021C33.0738 16.7263 32.443 16.9849 32.443 17.5057V20.6921C32.443 22.0285 33.5438 23.1281 34.879 23.1281C35.7224 23.1377 36.8921 23.1402 37.8854 23.1377C38.3941 23.1365 38.6526 22.5287 38.2998 22.1614C37.025 20.8359 34.7425 18.4603 33.4351 17.1021Z" fill="#9E1CB5"/>
<path d="M32.2521 29.5678C31.9005 29.917 31.3314 29.9194 30.9785 29.5653L29.0585 27.6356V33.4683C29.0585 33.9649 28.6549 34.3685 28.1583 34.3685C27.6616 34.3685 27.2593 33.9649 27.2593 33.4683V27.6356L25.3368 29.5653C24.9864 29.9194 24.4161 29.917 24.0644 29.5678C23.7128 29.2185 23.7116 28.6482 24.062 28.2954L27.5203 24.8214C27.5215 24.8202 27.5215 24.8202 27.5215 24.8202C27.6036 24.738 27.7027 24.6716 27.8115 24.6269C27.9202 24.581 28.0386 24.5568 28.1583 24.5568C28.2791 24.5568 28.3975 24.581 28.5063 24.6269C28.6138 24.6716 28.7117 24.738 28.7939 24.819C28.7951 24.8202 28.7963 24.8202 28.7963 24.8214L32.2545 28.2954C32.6049 28.6482 32.6049 29.2185 32.2521 29.5678Z" fill="#9E1CB5"/>
</svg>
