<svg width="56" height="56" viewBox="0 0 56 56" fill="none" xmlns="http://www.w3.org/2000/svg">
<circle cx="28" cy="28" r="25.5" fill="#4568F9" stroke="white" stroke-width="5"/>
<path d="M34.6919 27.1862C34.6414 27.056 34.5657 26.937 34.4691 26.8361L29.1641 21.531C29.0651 21.4321 28.9477 21.3536 28.8184 21.3001C28.6892 21.2466 28.5507 21.219 28.4107 21.219C28.1282 21.219 27.8572 21.3312 27.6574 21.531C27.5585 21.63 27.48 21.7474 27.4265 21.8767C27.373 22.0059 27.3454 22.1444 27.3454 22.2843C27.3454 22.5669 27.4576 22.8379 27.6574 23.0377L31.1588 26.5284H23.1057C22.8243 26.5284 22.5544 26.6402 22.3554 26.8392C22.1565 27.0381 22.0447 27.308 22.0447 27.5894C22.0447 27.8708 22.1565 28.1407 22.3554 28.3397C22.5544 28.5386 22.8243 28.6504 23.1057 28.6504H31.1588L27.6574 32.1411C27.558 32.2398 27.4791 32.3571 27.4252 32.4864C27.3713 32.6157 27.3436 32.7544 27.3436 32.8945C27.3436 33.0345 27.3713 33.1732 27.4252 33.3025C27.4791 33.4318 27.558 33.5491 27.6574 33.6478C27.7561 33.7472 27.8734 33.8262 28.0027 33.88C28.132 33.9339 28.2707 33.9616 28.4107 33.9616C28.5508 33.9616 28.6895 33.9339 28.8188 33.88C28.9481 33.8262 29.0654 33.7472 29.1641 33.6478L34.4691 28.3427C34.5657 28.2418 34.6414 28.1228 34.6919 27.9926C34.7981 27.7343 34.7981 27.4445 34.6919 27.1862Z" fill="white"/>
</svg>
