<svg width="18" height="14" viewBox="0 0 18 14" fill="none" xmlns="http://www.w3.org/2000/svg">
<path d="M17.3334 1.83326C16.707 2.10501 16.0445 2.28465 15.3667 2.3666C16.0818 1.93936 16.6177 1.26725 16.875 0.474931C16.203 0.874983 15.4673 1.15684 14.7 1.30826C14.1871 0.752074 13.5042 0.381844 12.7582 0.25564C12.0122 0.129436 11.2455 0.254396 10.5782 0.610922C9.91088 0.967448 9.3808 1.53537 9.07105 2.22563C8.76131 2.91588 8.68943 3.68942 8.86669 4.42493C7.50788 4.3562 6.17872 4.00239 4.96557 3.38648C3.75241 2.77057 2.68239 1.90634 1.82502 0.84993C1.5243 1.37507 1.36629 1.96978 1.36669 2.57493C1.36562 3.13692 1.50353 3.69044 1.76815 4.18623C2.03276 4.68202 2.41587 5.10469 2.88335 5.4166C2.34 5.40181 1.80826 5.25601 1.33335 4.9916V5.03326C1.33743 5.82067 1.61335 6.58251 2.11445 7.1899C2.61555 7.7973 3.31107 8.21297 4.08335 8.3666C3.78607 8.45707 3.47742 8.50477 3.16669 8.50826C2.9516 8.50575 2.73704 8.48625 2.52502 8.44993C2.74495 9.12727 3.17054 9.71922 3.74258 10.1434C4.31463 10.5676 5.00467 10.8029 5.71669 10.8166C4.51436 11.7627 3.02992 12.279 1.50002 12.2833C1.22147 12.2842 0.943133 12.2675 0.666687 12.2333C2.22871 13.2418 4.04903 13.7772 5.90835 13.7749C7.19143 13.7883 8.4643 13.5458 9.65262 13.0617C10.8409 12.5775 11.9209 11.8615 12.8294 10.9553C13.7378 10.0492 14.4567 8.97109 14.9438 7.78402C15.431 6.59695 15.6767 5.3247 15.6667 4.0416C15.6667 3.89993 15.6667 3.74993 15.6667 3.59993C16.3206 3.11227 16.8846 2.51445 17.3334 1.83326Z" fill="#434A54"/>
</svg>
